<svg width="69" height="12" viewBox="0 0 69 12" fill="none" xmlns="http://www.w3.org/2000/svg">
<g opacity="0.75">
<path d="M7.64403 8.41981V8.69443C7.64403 10.4253 6.28014 11.6059 4.24884 11.6059H0V0.993652H4.02476C6.05314 0.993652 7.41995 2.09307 7.41995 3.76009V4.0347C7.42447 4.46698 7.31569 4.89293 7.10438 5.27044C6.89307 5.64795 6.58655 5.96393 6.21514 6.18713C7.12408 6.63966 7.64403 7.41612 7.64403 8.41981ZM1.8984 2.70902V5.39423H4.02476C4.94728 5.39423 5.51767 4.92526 5.51767 4.18458V3.9061C5.51767 3.14608 4.9822 2.70902 4.02476 2.70902H1.8984ZM5.74467 8.35503C5.74467 7.59404 5.12868 7.1096 4.18676 7.1096H1.8984V9.87507H4.18676C5.15681 9.87507 5.74467 9.4061 5.74467 8.62964V8.35503Z" fill="black"/>
<path d="M9.3125 0.993652H16.0641V2.72449H11.2138V5.44161H15.7731V7.15795H11.2138V9.87507H16.0641V11.6059H9.3125V0.993652Z" fill="black"/>
<path d="M24.2447 2.72546L19.4915 9.87507H24.2447V11.6059H17.3477V9.87507L22.1174 2.72546H17.4447V0.993652H24.2447V2.72546Z" fill="black"/>
<path d="M33.5912 0.993652V11.6059H31.5958L27.798 4.52108V11.6059H25.9316V0.993652H27.9115L31.7209 8.12876V0.993652H33.5912Z" fill="black"/>
<path d="M35.6011 0.993652H42.3527V2.72449H37.5024V5.44161H42.0616V7.15795H37.5024V9.87507H42.3527V11.6059H35.6011V0.993652Z" fill="black"/>
<path d="M51.6362 8.41981V8.69443C51.6362 10.4253 50.2781 11.6059 48.241 11.6059H43.9932V0.993652H48.0179C50.0463 0.993652 51.4131 2.09307 51.4131 3.76009V4.0347C51.4179 4.46644 51.3096 4.89195 51.099 5.26924C50.8884 5.64654 50.5827 5.96257 50.2122 6.18616C51.1221 6.63966 51.6362 7.41612 51.6362 8.41981ZM45.8916 2.70902V5.39423H48.0179C48.9424 5.39423 49.5108 4.92526 49.5108 4.18071V3.9061C49.5108 3.14608 48.9754 2.70902 48.0179 2.70902H45.8916ZM49.7378 8.35503C49.7378 7.59404 49.1209 7.1096 48.1799 7.1096H45.8916V9.87507H48.1799C49.15 9.87507 49.7378 9.4061 49.7378 8.62964V8.35503Z" fill="black"/>
<path d="M53.3076 0.993652H60.0582V2.72449H55.208V5.44161H59.7672V7.15795H55.208V9.87507H60.0582V11.6059H53.3076V0.993652Z" fill="black"/>
<path d="M61.3726 8.49961V8.11283H63.1904V8.49961C63.1904 9.56325 63.8879 10.1173 65.2023 10.1173C66.4198 10.1173 67.1172 9.63384 67.1172 8.76359V8.5702C67.1172 7.89333 66.6467 7.42146 65.7213 7.17876L64.1149 6.75911C62.427 6.32204 61.5346 5.38314 61.5346 4.05745V3.79734C61.5346 1.99689 63.0275 0.799805 65.2673 0.799805C67.5392 0.799805 68.8565 1.9321 68.8565 3.87373V4.26051H67.0522V3.87373C67.0522 2.90678 66.4702 2.44942 65.2023 2.44942C64.0984 2.44942 63.4174 2.91935 63.4174 3.69581V3.8892C63.4174 4.45584 63.9025 4.9248 64.7154 5.15107L66.3063 5.58813C68.1232 6.08998 69.0001 7.01148 69.0001 8.41935V8.67753C69.0001 10.5863 67.5227 11.7998 65.2023 11.7998C62.719 11.7998 61.3726 10.6356 61.3726 8.49961Z" fill="black"/>
</g>
</svg>
