<svg width="1027" height="514" viewBox="0 0 1027 514" fill="none" xmlns="http://www.w3.org/2000/svg">
<path d="M255.366 388.609L220.716 423.239V472.213C220.716 475.081 218.461 477.335 215.59 477.335H173.354L173.969 470.163L174.584 461.967C176.224 441.271 181.555 421.395 190.167 402.748C197.753 386.151 208.209 370.782 220.716 357.463C222.151 355.824 223.792 354.39 225.227 352.75C225.432 352.545 225.637 352.34 225.842 351.931L255.366 381.438C257.212 383.282 257.212 386.56 255.366 388.609Z" fill="#F5F5F5" fill-opacity="0.3"/>
<path d="M161.051 482.66L131.937 511.962C129.886 514.011 126.606 514.011 124.76 511.962L90.1103 477.333H41.1079C38.2375 477.333 35.9822 475.079 35.9822 472.21V429.998L43.3633 430.613L51.1545 431.228C90.1103 434.302 127.016 450.694 155.515 477.128C157.155 478.767 158.796 480.201 160.436 481.841C160.641 482.25 160.846 482.455 161.051 482.66Z" fill="#F5F5F5" fill-opacity="0.3"/>
<path d="M82.9349 292.71L82.3198 300.291L81.7047 308.078C78.6293 347.011 62.4319 383.689 35.9829 412.172C34.3426 413.811 32.7024 415.655 31.0622 417.295C30.8571 417.499 30.6521 417.704 30.6521 417.704L1.53773 388.607C-0.512577 386.558 -0.512577 383.28 1.53773 381.435L36.1879 346.806V297.832C36.1879 294.964 38.4433 292.71 41.3137 292.71H82.9349Z" fill="#F5F5F5" fill-opacity="0.3"/>
<path d="M220.716 297.834V339.841C220.716 339.841 220.716 339.841 220.511 339.841L213.129 339.226L204.928 338.611C184.22 336.972 164.332 331.644 145.674 323.038C129.272 315.457 113.895 305.211 100.568 292.712C98.9273 291.072 97.2871 289.638 95.6469 287.999C95.4418 287.794 95.2368 287.589 95.2368 287.589L124.556 258.287C126.606 256.238 129.887 256.238 131.732 258.287L166.382 292.917H215.385C218.255 292.712 220.716 294.966 220.716 297.834Z" fill="#F5F5F5" fill-opacity="0.3"/>
<path d="M512.116 388.609L477.466 423.239V472.213C477.466 475.081 475.211 477.335 472.34 477.335H430.104L430.719 470.163L431.334 461.967C432.974 441.271 438.305 421.395 446.917 402.748C454.503 386.151 464.959 370.782 477.466 357.463C478.901 355.824 480.542 354.39 481.977 352.75C482.182 352.545 482.387 352.34 482.592 351.931L512.116 381.438C513.962 383.282 513.962 386.56 512.116 388.609Z" fill="#F5F5F5" fill-opacity="0.3"/>
<path d="M417.801 482.66L388.687 511.962C386.636 514.011 383.356 514.011 381.51 511.962L346.86 477.333H297.858C294.988 477.333 292.732 475.079 292.732 472.21V429.998L300.113 430.613L307.904 431.228C346.86 434.302 383.766 450.694 412.265 477.128C413.905 478.767 415.546 480.201 417.186 481.841C417.391 482.25 417.596 482.455 417.801 482.66Z" fill="#F5F5F5" fill-opacity="0.3"/>
<path d="M339.685 292.71L339.07 300.291L338.455 308.078C335.379 347.011 319.182 383.689 292.733 412.172C291.093 413.811 289.452 415.655 287.812 417.295C287.607 417.499 287.402 417.704 287.402 417.704L258.288 388.607C256.237 386.558 256.237 383.28 258.288 381.435L292.938 346.806V297.832C292.938 294.964 295.193 292.71 298.064 292.71H339.685Z" fill="#F5F5F5" fill-opacity="0.3"/>
<path d="M477.466 297.834V339.841C477.466 339.841 477.466 339.841 477.261 339.841L469.879 339.226L461.678 338.611C440.97 336.972 421.082 331.644 402.424 323.038C386.022 315.457 370.645 305.211 357.318 292.712C355.677 291.072 354.037 289.638 352.397 287.999C352.192 287.794 351.987 287.589 351.987 287.589L381.306 258.287C383.356 256.238 386.637 256.238 388.482 258.287L423.132 292.917H472.135C475.005 292.712 477.466 294.966 477.466 297.834Z" fill="#F5F5F5" fill-opacity="0.3"/>
<path d="M512.116 131.859L477.466 166.489V215.463C477.466 218.331 475.211 220.585 472.34 220.585H430.104L430.719 213.414L431.334 205.217C432.974 184.521 438.305 164.645 446.917 145.998C454.503 129.401 464.959 114.032 477.466 100.713C478.901 99.074 480.542 97.6396 481.977 96.0003C482.182 95.7954 482.387 95.5905 482.592 95.1807L512.116 124.688C513.962 126.532 513.962 129.81 512.116 131.859Z" fill="#F5F5F5" fill-opacity="0.3"/>
<path d="M417.801 225.91L388.687 255.212C386.636 257.261 383.356 257.261 381.51 255.212L346.86 220.583H297.858C294.988 220.583 292.732 218.329 292.732 215.46V173.248L300.113 173.863L307.904 174.478C346.86 177.552 383.766 193.944 412.265 220.378C413.905 222.017 415.546 223.451 417.186 225.091C417.391 225.5 417.596 225.705 417.801 225.91Z" fill="#F5F5F5" fill-opacity="0.3"/>
<path d="M339.685 35.9595L339.07 43.5411L338.455 51.3277C335.379 90.2605 319.182 126.939 292.733 155.422C291.093 157.061 289.452 158.905 287.812 160.544C287.607 160.749 287.402 160.954 287.402 160.954L258.288 131.857C256.237 129.808 256.237 126.529 258.288 124.685L292.938 90.0556V41.0822C292.938 38.2135 295.193 35.9595 298.064 35.9595H339.685Z" fill="#F5F5F5" fill-opacity="0.3"/>
<path d="M477.466 41.0844V83.0908C477.466 83.0908 477.466 83.0908 477.261 83.0908L469.879 82.4761L461.678 81.8613C440.97 80.2221 421.082 74.8944 402.424 66.2882C386.022 58.7066 370.645 48.4611 357.318 35.9616C355.677 34.3224 354.037 32.888 352.397 31.2487C352.192 31.0438 351.987 30.8389 351.987 30.8389L381.306 1.53682C383.356 -0.512274 386.637 -0.512274 388.482 1.53682L423.132 36.1665H472.135C475.005 35.9616 477.466 38.2156 477.466 41.0844Z" fill="#F5F5F5" fill-opacity="0.3"/>
<path d="M255.366 131.859L220.716 166.489V215.463C220.716 218.331 218.461 220.585 215.59 220.585H173.354L173.969 213.414L174.584 205.217C176.224 184.521 181.555 164.645 190.167 145.998C197.753 129.401 208.209 114.032 220.716 100.713C222.151 99.074 223.792 97.6396 225.227 96.0003C225.432 95.7954 225.637 95.5905 225.842 95.1807L255.366 124.688C257.212 126.532 257.212 129.81 255.366 131.859Z" fill="#F5F5F5" fill-opacity="0.3"/>
<path d="M161.051 225.91L131.937 255.212C129.886 257.261 126.606 257.261 124.76 255.212L90.1103 220.583H41.1079C38.2375 220.583 35.9822 218.329 35.9822 215.46V173.248L43.3633 173.863L51.1545 174.478C90.1103 177.552 127.016 193.944 155.515 220.378C157.155 222.017 158.796 223.451 160.436 225.091C160.641 225.5 160.846 225.705 161.051 225.91Z" fill="#F5F5F5" fill-opacity="0.3"/>
<path d="M82.9349 35.9595L82.3198 43.5411L81.7047 51.3277C78.6293 90.2605 62.4319 126.939 35.9829 155.422C34.3426 157.061 32.7024 158.905 31.0622 160.544C30.8571 160.749 30.6521 160.954 30.6521 160.954L1.53773 131.857C-0.512577 129.808 -0.512577 126.529 1.53773 124.685L36.1879 90.0556V41.0822C36.1879 38.2135 38.4433 35.9595 41.3137 35.9595H82.9349Z" fill="#F5F5F5" fill-opacity="0.3"/>
<path d="M220.716 41.0844V83.0908C220.716 83.0908 220.716 83.0908 220.511 83.0908L213.129 82.4761L204.928 81.8613C184.22 80.2221 164.332 74.8944 145.674 66.2882C129.272 58.7066 113.895 48.4611 100.568 35.9616C98.9273 34.3224 97.2871 32.888 95.6469 31.2487C95.4418 31.0438 95.2368 30.8389 95.2368 30.8389L124.556 1.53682C126.606 -0.512274 129.887 -0.512274 131.732 1.53682L166.382 36.1665H215.385C218.255 35.9616 220.716 38.2156 220.716 41.0844Z" fill="#F5F5F5" fill-opacity="0.3"/>
<path d="M768.866 388.609L734.216 423.239V472.213C734.216 475.081 731.961 477.335 729.09 477.335H686.854L687.469 470.163L688.084 461.967C689.724 441.271 695.055 421.395 703.667 402.748C711.253 386.151 721.709 370.782 734.216 357.463C735.651 355.824 737.292 354.39 738.727 352.75C738.932 352.545 739.137 352.34 739.342 351.931L768.866 381.438C770.712 383.282 770.712 386.56 768.866 388.609Z" fill="#F5F5F5" fill-opacity="0.3"/>
<path d="M674.551 482.66L645.437 511.962C643.386 514.011 640.106 514.011 638.26 511.962L603.61 477.333H554.608C551.738 477.333 549.482 475.079 549.482 472.21V429.998L556.863 430.613L564.654 431.228C603.61 434.302 640.516 450.694 669.015 477.128C670.655 478.767 672.296 480.201 673.936 481.841C674.141 482.25 674.346 482.455 674.551 482.66Z" fill="#F5F5F5" fill-opacity="0.3"/>
<path d="M596.435 292.71L595.82 300.291L595.205 308.078C592.129 347.011 575.932 383.689 549.483 412.172C547.843 413.811 546.202 415.655 544.562 417.295C544.357 417.499 544.152 417.704 544.152 417.704L515.038 388.607C512.987 386.558 512.987 383.28 515.038 381.435L549.688 346.806V297.832C549.688 294.964 551.943 292.71 554.814 292.71H596.435Z" fill="#F5F5F5" fill-opacity="0.3"/>
<path d="M734.216 297.834V339.841C734.216 339.841 734.216 339.841 734.011 339.841L726.629 339.226L718.428 338.611C697.72 336.972 677.832 331.644 659.174 323.038C642.772 315.457 627.395 305.211 614.068 292.712C612.427 291.072 610.787 289.638 609.147 287.999C608.942 287.794 608.737 287.589 608.737 287.589L638.056 258.287C640.106 256.238 643.387 256.238 645.232 258.287L679.882 292.917H728.885C731.755 292.712 734.216 294.966 734.216 297.834Z" fill="#F5F5F5" fill-opacity="0.3"/>
<path d="M1025.62 388.609L990.966 423.239V472.213C990.966 475.081 988.711 477.335 985.84 477.335H943.604L944.219 470.163L944.834 461.967C946.474 441.271 951.805 421.395 960.417 402.748C968.003 386.151 978.459 370.782 990.966 357.463C992.401 355.824 994.042 354.39 995.477 352.75C995.682 352.545 995.887 352.34 996.092 351.931L1025.62 381.438C1027.46 383.282 1027.46 386.56 1025.62 388.609Z" fill="#F5F5F5" fill-opacity="0.3"/>
<path d="M931.301 482.66L902.187 511.962C900.136 514.011 896.856 514.011 895.01 511.962L860.36 477.333H811.358C808.488 477.333 806.232 475.079 806.232 472.21V429.998L813.613 430.613L821.404 431.228C860.36 434.302 897.266 450.694 925.765 477.128C927.405 478.767 929.046 480.201 930.686 481.841C930.891 482.25 931.096 482.455 931.301 482.66Z" fill="#F5F5F5" fill-opacity="0.3"/>
<path d="M853.185 292.71L852.57 300.291L851.955 308.078C848.879 347.011 832.682 383.689 806.233 412.172C804.593 413.811 802.952 415.655 801.312 417.295C801.107 417.499 800.902 417.704 800.902 417.704L771.788 388.607C769.737 386.558 769.737 383.28 771.788 381.435L806.438 346.806V297.832C806.438 294.964 808.693 292.71 811.564 292.71H853.185Z" fill="#F5F5F5" fill-opacity="0.3"/>
<path d="M990.966 297.834V339.841C990.966 339.841 990.966 339.841 990.761 339.841L983.379 339.226L975.178 338.611C954.47 336.972 934.582 331.644 915.924 323.038C899.522 315.457 884.145 305.211 870.818 292.712C869.177 291.072 867.537 289.638 865.897 287.999C865.692 287.794 865.487 287.589 865.487 287.589L894.806 258.287C896.856 256.238 900.137 256.238 901.982 258.287L936.632 292.917H985.635C988.505 292.712 990.966 294.966 990.966 297.834Z" fill="#F5F5F5" fill-opacity="0.3"/>
<path d="M1025.62 131.859L990.966 166.489V215.463C990.966 218.331 988.711 220.585 985.84 220.585H943.604L944.219 213.414L944.834 205.217C946.474 184.521 951.805 164.645 960.417 145.998C968.003 129.401 978.459 114.032 990.966 100.713C992.401 99.074 994.042 97.6396 995.477 96.0003C995.682 95.7954 995.887 95.5905 996.092 95.1807L1025.62 124.688C1027.46 126.532 1027.46 129.81 1025.62 131.859Z" fill="#F5F5F5" fill-opacity="0.3"/>
<path d="M931.301 225.91L902.187 255.212C900.136 257.261 896.856 257.261 895.01 255.212L860.36 220.583H811.358C808.488 220.583 806.232 218.329 806.232 215.46V173.248L813.613 173.863L821.404 174.478C860.36 177.552 897.266 193.944 925.765 220.378C927.405 222.017 929.046 223.451 930.686 225.091C930.891 225.5 931.096 225.705 931.301 225.91Z" fill="#F5F5F5" fill-opacity="0.3"/>
<path d="M853.185 35.9595L852.57 43.5411L851.955 51.3277C848.879 90.2605 832.682 126.939 806.233 155.422C804.593 157.061 802.952 158.905 801.312 160.544C801.107 160.749 800.902 160.954 800.902 160.954L771.788 131.857C769.737 129.808 769.737 126.529 771.788 124.685L806.438 90.0556V41.0822C806.438 38.2135 808.693 35.9595 811.564 35.9595H853.185Z" fill="#F5F5F5" fill-opacity="0.3"/>
<path d="M990.966 41.0844V83.0908C990.966 83.0908 990.966 83.0908 990.761 83.0908L983.379 82.4761L975.178 81.8613C954.47 80.2221 934.582 74.8944 915.924 66.2882C899.522 58.7066 884.145 48.4611 870.818 35.9616C869.177 34.3224 867.537 32.888 865.897 31.2487C865.692 31.0438 865.487 30.8389 865.487 30.8389L894.806 1.53682C896.856 -0.512274 900.137 -0.512274 901.982 1.53682L936.632 36.1665H985.635C988.505 35.9616 990.966 38.2156 990.966 41.0844Z" fill="#F5F5F5" fill-opacity="0.3"/>
<path d="M768.866 131.859L734.216 166.489V215.463C734.216 218.331 731.961 220.585 729.09 220.585H686.854L687.469 213.414L688.084 205.217C689.724 184.521 695.055 164.645 703.667 145.998C711.253 129.401 721.709 114.032 734.216 100.713C735.651 99.074 737.292 97.6396 738.727 96.0003C738.932 95.7954 739.137 95.5905 739.342 95.1807L768.866 124.688C770.712 126.532 770.712 129.81 768.866 131.859Z" fill="#F5F5F5" fill-opacity="0.3"/>
<path d="M674.551 225.91L645.437 255.212C643.386 257.261 640.106 257.261 638.26 255.212L603.61 220.583H554.608C551.738 220.583 549.482 218.329 549.482 215.46V173.248L556.863 173.863L564.654 174.478C603.61 177.552 640.516 193.944 669.015 220.378C670.655 222.017 672.296 223.451 673.936 225.091C674.141 225.5 674.346 225.705 674.551 225.91Z" fill="#F5F5F5" fill-opacity="0.3"/>
<path d="M596.435 35.9595L595.82 43.5411L595.205 51.3277C592.129 90.2605 575.932 126.939 549.483 155.422C547.843 157.061 546.202 158.905 544.562 160.544C544.357 160.749 544.152 160.954 544.152 160.954L515.038 131.857C512.987 129.808 512.987 126.529 515.038 124.685L549.688 90.0556V41.0822C549.688 38.2135 551.943 35.9595 554.814 35.9595H596.435Z" fill="#F5F5F5" fill-opacity="0.3"/>
<path d="M734.216 41.0844V83.0908C734.216 83.0908 734.216 83.0908 734.011 83.0908L726.629 82.4761L718.428 81.8613C697.72 80.2221 677.832 74.8944 659.174 66.2882C642.772 58.7066 627.395 48.4611 614.068 35.9616C612.427 34.3224 610.787 32.888 609.147 31.2487C608.942 31.0438 608.737 30.8389 608.737 30.8389L638.056 1.53682C640.106 -0.512274 643.387 -0.512274 645.232 1.53682L679.882 36.1665H728.885C731.755 35.9616 734.216 38.2156 734.216 41.0844Z" fill="#F5F5F5" fill-opacity="0.3"/>
</svg>
