<svg width="50" height="50" viewBox="0 0 50 50" fill="none" xmlns="http://www.w3.org/2000/svg">
<g clip-path="url(#clip0_1149_776)">
<path d="M17.917 37.9727H32.1299" stroke="#0C54A0" stroke-width="0.878906" stroke-linecap="round" stroke-linejoin="round"/>
<path d="M27.7783 32.499H22.2686V37.9727H27.7783V32.499Z" stroke="#0C54A0" stroke-width="0.878906" stroke-linecap="round" stroke-linejoin="round"/>
<path d="M37.8047 12.0273H12.1963C11.0205 12.0273 10.0674 12.9805 10.0674 14.1563V30.3701C10.0674 31.5459 11.0205 32.499 12.1963 32.499H37.8047C38.9804 32.499 39.9336 31.5459 39.9336 30.3701V14.1563C39.9336 12.9805 38.9804 12.0273 37.8047 12.0273Z" stroke="#0C54A0" stroke-width="0.878906" stroke-linecap="round" stroke-linejoin="round"/>
<path d="M19.8252 23.7168C20.6283 23.7168 21.2793 23.0658 21.2793 22.2627C21.2793 21.4596 20.6283 20.8086 19.8252 20.8086C19.0221 20.8086 18.3711 21.4596 18.3711 22.2627C18.3711 23.0658 19.0221 23.7168 19.8252 23.7168Z" stroke="#0C54A0" stroke-width="0.878906" stroke-linecap="round" stroke-linejoin="round"/>
<path d="M25 23.7168C25.8031 23.7168 26.4541 23.0658 26.4541 22.2627C26.4541 21.4596 25.8031 20.8086 25 20.8086C24.1969 20.8086 23.5459 21.4596 23.5459 22.2627C23.5459 23.0658 24.1969 23.7168 25 23.7168Z" stroke="#0C54A0" stroke-width="0.878906" stroke-linecap="round" stroke-linejoin="round"/>
<path d="M30.1748 23.7168C30.9779 23.7168 31.6289 23.0658 31.6289 22.2627C31.6289 21.4596 30.9779 20.8086 30.1748 20.8086C29.3717 20.8086 28.7207 21.4596 28.7207 22.2627C28.7207 23.0658 29.3717 23.7168 30.1748 23.7168Z" stroke="#0C54A0" stroke-width="0.878906" stroke-linecap="round" stroke-linejoin="round"/>
</g>
<defs>
<clipPath id="clip0_1149_776">
<rect width="50" height="50" fill="white"/>
</clipPath>
</defs>
</svg>
