<svg width="50" height="50" viewBox="0 0 50 50" fill="none" xmlns="http://www.w3.org/2000/svg">
<g clip-path="url(#clip0_1149_743)">
<path d="M26.7256 36.8467H36.2373C36.3585 36.8467 36.4748 36.7985 36.5605 36.7128C36.6462 36.6271 36.6943 36.5109 36.6943 36.3896V23.5605C36.6943 23.4393 36.6462 23.3231 36.5605 23.2374C36.4748 23.1517 36.3585 23.1035 36.2373 23.1035H26.7256" stroke="#0C54A0" stroke-width="0.878906" stroke-linecap="round" stroke-linejoin="round"/>
<path d="M26.7256 23.1035H13.7627C13.5103 23.1035 13.3057 23.3081 13.3057 23.5605V36.3896C13.3057 36.6421 13.5103 36.8467 13.7627 36.8467H26.7256C26.978 36.8467 27.1826 36.6421 27.1826 36.3896V23.5605C27.1826 23.3081 26.978 23.1035 26.7256 23.1035Z" stroke="#0C54A0" stroke-width="0.878906" stroke-linecap="round" stroke-linejoin="round"/>
<path d="M30.1758 23.1035H33.6914V26.7578C33.6914 26.8319 33.662 26.9029 33.6096 26.9553C33.5572 27.0077 33.4862 27.0371 33.4121 27.0371H30.4531C30.3794 27.0366 30.3089 27.0069 30.2569 26.9546C30.2049 26.9023 30.1758 26.8315 30.1758 26.7578V23.1035Z" stroke="#0C54A0" stroke-width="0.878906" stroke-linecap="round" stroke-linejoin="round"/>
<path d="M33.4375 16.6642C32.3319 15.5521 31.0175 14.6695 29.5698 14.067C28.1221 13.4644 26.5695 13.154 25.0014 13.1533C23.4333 13.1527 21.8805 13.4619 20.4323 14.0633C18.9841 14.6646 17.669 15.5462 16.5625 16.6573" stroke="#0C54A0" stroke-width="0.878906" stroke-linecap="round" stroke-linejoin="round"/>
<path d="M29.5596 19.3506C28.3623 18.1416 26.8311 17.5205 24.9961 17.5205C24.1243 17.5193 23.261 17.6914 22.4563 18.0267C21.6516 18.362 20.9216 18.8538 20.3086 19.4736" stroke="#0C54A0" stroke-width="0.878906" stroke-linecap="round" stroke-linejoin="round"/>
</g>
<defs>
<clipPath id="clip0_1149_743">
<rect width="50" height="50" fill="white"/>
</clipPath>
</defs>
</svg>
