<svg width="50" height="50" viewBox="0 0 50 50" fill="none" xmlns="http://www.w3.org/2000/svg">
<g clip-path="url(#clip0_1149_842)">
<path d="M15.4074 36.4258C15.4074 36.4258 3.00506 26.4199 15.3 13.6934" stroke="#2350BA" stroke-width="0.878906" stroke-linecap="round" stroke-linejoin="round"/>
<path d="M19.053 32.7363C19.053 32.7363 11.8528 26.4336 19.0354 17.3828" stroke="#2350BA" stroke-width="0.878906" stroke-linecap="round" stroke-linejoin="round"/>
<path d="M27.8262 25.0596C27.8262 23.4998 26.5617 22.2354 25.002 22.2354C23.4422 22.2354 22.1777 23.4998 22.1777 25.0596C22.1777 26.6193 23.4422 27.8838 25.002 27.8838C26.5617 27.8838 27.8262 26.6193 27.8262 25.0596Z" stroke="#2350BA" stroke-width="0.878906" stroke-linecap="round" stroke-linejoin="round"/>
<path d="M34.5965 13.6934C34.5965 13.6934 46.9988 23.6992 34.7039 36.4258" stroke="#2350BA" stroke-width="0.878906" stroke-linecap="round" stroke-linejoin="round"/>
<path d="M30.9509 17.3828C30.9509 17.3828 38.1511 23.6855 30.9685 32.7363" stroke="#2350BA" stroke-width="0.878906" stroke-linecap="round" stroke-linejoin="round"/>
</g>
<defs>
<clipPath id="clip0_1149_842">
<rect width="50" height="50" fill="white"/>
</clipPath>
</defs>
</svg>
