<svg width="597" height="587" viewBox="0 0 597 587" fill="none" xmlns="http://www.w3.org/2000/svg">
<mask id="mask0_5_7" style="mask-type:luminance" maskUnits="userSpaceOnUse" x="-895" y="-245" width="2388" height="1077">
<path d="M1492.8 -244.565H-894.997V831.527H1492.8V-244.565Z" fill="white"/>
</mask>
<g mask="url(#mask0_5_7)">
<path opacity="0.6" d="M436.099 293.059C436.099 369.411 374.398 431.209 298.167 431.209C221.936 431.209 160.235 369.411 160.235 293.059C160.235 216.708 221.936 154.909 298.167 154.909C374.398 154.909 436.099 216.919 436.099 293.059Z" fill="#0C54A0"/>
</g>
<mask id="mask1_5_7" style="mask-type:luminance" maskUnits="userSpaceOnUse" x="-895" y="-245" width="2388" height="1077">
<path d="M1492.8 -244.565H-894.997V831.527H1492.8V-244.565Z" fill="white"/>
</mask>
<g mask="url(#mask1_5_7)">
<path d="M298.377 486.258C192.243 486.258 105.904 399.783 105.904 293.481C105.904 187.18 192.243 100.704 298.377 100.704C404.511 100.704 490.85 187.18 490.85 293.481C490.85 399.783 404.511 486.258 298.377 486.258ZM298.377 96.4858C189.927 96.4858 101.692 184.86 101.692 293.481C101.692 402.103 189.927 490.476 298.377 490.476C406.827 490.476 495.061 402.103 495.061 293.481C495.061 184.86 406.827 96.4858 298.377 96.4858Z" fill="#0C54A0"/>
</g>
<mask id="mask2_5_7" style="mask-type:luminance" maskUnits="userSpaceOnUse" x="-895" y="-245" width="2388" height="1077">
<path d="M1492.8 -244.565H-894.997V831.527H1492.8V-244.565Z" fill="white"/>
</mask>
<g mask="url(#mask2_5_7)">
<path d="M79.1606 284.623H92.4274C93.0591 269.437 95.3755 254.673 99.166 240.331C94.9544 238.643 90.9533 236.956 86.7416 235.269C82.53 251.087 79.7924 267.539 79.1606 284.623Z" fill="#0C54A0"/>
</g>
<mask id="mask3_5_7" style="mask-type:luminance" maskUnits="userSpaceOnUse" x="-895" y="-245" width="2388" height="1077">
<path d="M1492.8 -244.565H-894.997V831.527H1492.8V-244.565Z" fill="white"/>
</mask>
<g mask="url(#mask3_5_7)">
<path d="M503.064 372.575C511.909 349.796 516.963 325.119 517.594 299.387H504.328C503.696 323.009 499.063 345.788 491.061 366.88C495.062 368.989 499.063 370.887 503.064 372.575Z" fill="#0C54A0"/>
</g>
<mask id="mask4_5_7" style="mask-type:luminance" maskUnits="userSpaceOnUse" x="-895" y="-245" width="2388" height="1077">
<path d="M1492.8 -244.565H-894.997V831.527H1492.8V-244.565Z" fill="white"/>
</mask>
<g mask="url(#mask4_5_7)">
<path d="M448.312 435.006C451.682 437.959 455.051 440.911 458.42 443.864C473.161 428.046 485.796 409.907 495.483 390.292C491.482 388.604 487.27 386.706 483.269 384.808C474.214 403.157 462.422 420.031 448.312 435.006Z" fill="#0C54A0"/>
</g>
<mask id="mask5_5_7" style="mask-type:luminance" maskUnits="userSpaceOnUse" x="-895" y="-245" width="2388" height="1077">
<path d="M1492.8 -244.565H-894.997V831.527H1492.8V-244.565Z" fill="white"/>
</mask>
<g mask="url(#mask5_5_7)">
<path d="M401.985 140.145C390.613 132.553 378.189 126.014 364.712 120.952L361.132 131.498C373.135 136.138 384.296 141.833 394.404 148.582C397.141 145.629 399.458 142.887 401.985 140.145Z" fill="#0C54A0"/>
</g>
<mask id="mask6_5_7" style="mask-type:luminance" maskUnits="userSpaceOnUse" x="-895" y="-245" width="2388" height="1077">
<path d="M1492.8 -244.565H-894.997V831.527H1492.8V-244.565Z" fill="white"/>
</mask>
<g mask="url(#mask6_5_7)">
<path d="M470.213 321.111C468.739 329.969 466.633 338.828 463.685 347.686C449.787 389.448 421.568 422.35 386.401 442.598C388.086 445.973 389.56 449.348 391.245 452.722C429.149 430.998 459.473 395.775 474.425 351.061C477.373 342.202 479.479 333.344 481.163 324.486L470.213 321.111Z" fill="#0C54A0"/>
</g>
<mask id="mask7_5_7" style="mask-type:luminance" maskUnits="userSpaceOnUse" x="-895" y="-245" width="2388" height="1077">
<path d="M1492.8 -244.565H-894.997V831.527H1492.8V-244.565Z" fill="white"/>
</mask>
<g mask="url(#mask7_5_7)">
<path d="M252.471 459.472L248.891 470.018C292.903 482.673 338.178 478.244 377.136 460.105C375.451 456.73 373.977 453.355 372.292 449.981C335.862 466.854 293.534 471.283 252.471 459.472Z" fill="#0C54A0"/>
</g>
<mask id="mask8_5_7" style="mask-type:luminance" maskUnits="userSpaceOnUse" x="-895" y="-245" width="2388" height="1077">
<path d="M1492.8 -244.565H-894.997V831.527H1492.8V-244.565Z" fill="white"/>
</mask>
<g mask="url(#mask8_5_7)">
<path d="M136.018 238.432C138.966 229.574 142.546 221.137 146.758 213.122L136.018 209.537C132.017 217.552 128.437 225.988 125.489 234.847C110.537 279.561 113.907 326.173 131.385 366.458C134.544 364.56 137.913 362.662 141.072 360.763C125.068 323.431 122.119 280.194 136.018 238.432Z" fill="#0C54A0"/>
</g>
<mask id="mask9_5_7" style="mask-type:luminance" maskUnits="userSpaceOnUse" x="-895" y="-245" width="2388" height="1077">
<path d="M1492.8 -244.565H-894.997V831.527H1492.8V-244.565Z" fill="white"/>
</mask>
<g mask="url(#mask9_5_7)">
<path d="M182.978 435.217C198.772 448.293 216.882 458.839 237.098 466.221L240.678 455.675C222.146 448.926 205.3 439.224 190.769 427.202C188.032 429.733 185.294 432.475 182.978 435.217Z" fill="#0C54A0"/>
</g>
<mask id="mask10_5_7" style="mask-type:luminance" maskUnits="userSpaceOnUse" x="-895" y="-245" width="2388" height="1077">
<path d="M1492.8 -244.565H-894.997V831.527H1492.8V-244.565Z" fill="white"/>
</mask>
<g mask="url(#mask10_5_7)">
<path d="M138.335 380.801C146.969 396.83 157.919 411.594 171.186 424.46C173.502 421.718 176.029 418.976 178.767 416.234C166.553 404.001 156.234 390.292 148.022 375.106C144.652 377.004 141.494 378.902 138.335 380.801Z" fill="#0C54A0"/>
</g>
<mask id="mask11_5_7" style="mask-type:luminance" maskUnits="userSpaceOnUse" x="-895" y="-245" width="2388" height="1077">
<path d="M1492.8 -244.565H-894.997V831.527H1492.8V-244.565Z" fill="white"/>
</mask>
<g mask="url(#mask11_5_7)">
<path d="M284.479 120.741C283.847 117.156 283.215 113.359 282.584 109.774C225.937 115.258 173.712 146.895 143.178 196.46L154.128 200.046C183.189 154.699 231.833 125.592 284.479 120.741Z" fill="#0C54A0"/>
</g>
<mask id="mask12_5_7" style="mask-type:luminance" maskUnits="userSpaceOnUse" x="-895" y="-245" width="2388" height="1077">
<path d="M1492.8 -244.565H-894.997V831.527H1492.8V-244.565Z" fill="white"/>
</mask>
<g mask="url(#mask12_5_7)">
<path d="M298.378 144.996C380.295 144.996 446.839 211.646 446.839 293.692C446.839 375.738 380.295 442.388 298.378 442.388C216.461 442.388 149.917 375.738 149.917 293.692C150.128 211.646 216.672 144.996 298.378 144.996ZM144.442 293.481C144.442 378.48 213.513 447.871 298.589 447.871C383.453 447.871 452.735 378.691 452.735 293.481C452.735 208.482 383.664 139.091 298.589 139.091C213.513 139.302 144.442 208.482 144.442 293.481Z" fill="#0C54A0"/>
</g>
<mask id="mask13_5_7" style="mask-type:luminance" maskUnits="userSpaceOnUse" x="-895" y="-245" width="2388" height="1077">
<path d="M1492.8 -244.565H-894.997V831.527H1492.8V-244.565Z" fill="white"/>
</mask>
<g mask="url(#mask13_5_7)">
<path d="M0.192566 292.216H14.0911C14.5122 235.268 33.2541 176.423 66.105 130.021C62.7357 126.647 59.3664 123.483 55.7865 120.108C19.7768 170.306 0.613732 230.417 0.192566 292.216Z" fill="#0C54A0"/>
</g>
<mask id="mask14_5_7" style="mask-type:luminance" maskUnits="userSpaceOnUse" x="-895" y="-245" width="2388" height="1077">
<path d="M1492.8 -244.565H-894.997V831.527H1492.8V-244.565Z" fill="white"/>
</mask>
<g mask="url(#mask14_5_7)">
<path d="M508.329 81.9325C466.213 39.9602 413.778 12.3303 356.71 0.940811C355.657 5.58096 354.814 10.0102 353.761 14.6503C409.566 25.8289 459.685 53.2479 498.642 92.0564C501.801 88.6818 505.171 85.3071 508.329 81.9325Z" fill="#0C54A0"/>
</g>
<mask id="mask15_5_7" style="mask-type:luminance" maskUnits="userSpaceOnUse" x="-895" y="-245" width="2388" height="1077">
<path d="M1492.8 -244.565H-894.997V831.527H1492.8V-244.565Z" fill="white"/>
</mask>
<g mask="url(#mask15_5_7)">
<path d="M97.9028 514.943C137.282 550.798 184.874 575.054 236.045 586.021V571.679C186.979 560.711 142.757 536.878 106.747 503.975C104.01 507.772 100.851 511.357 97.9028 514.943Z" fill="#0C54A0"/>
</g>
<mask id="mask16_5_7" style="mask-type:luminance" maskUnits="userSpaceOnUse" x="-895" y="-245" width="2388" height="1077">
<path d="M1492.8 -244.565H-894.997V831.527H1492.8V-244.565Z" fill="white"/>
</mask>
<g mask="url(#mask16_5_7)">
<path d="M144.442 38.0622C146.758 40.5932 148.864 43.1242 151.18 45.6552C152.023 46.7098 153.076 47.7644 153.918 48.608C179.188 33.633 206.774 22.4545 236.045 15.9161V1.57379C204.668 8.53401 172.239 21.3999 144.442 38.0622Z" fill="#0C54A0"/>
</g>
<mask id="mask17_5_7" style="mask-type:luminance" maskUnits="userSpaceOnUse" x="-895" y="-245" width="2388" height="1077">
<path d="M1492.8 -244.565H-894.997V831.527H1492.8V-244.565Z" fill="white"/>
</mask>
<g mask="url(#mask17_5_7)">
<path d="M29.4628 423.405C33.2533 420.242 36.8332 417.289 40.6237 414.336C25.6723 382.277 16.6172 347.265 14.5114 310.144H0.612915C2.71875 349.163 12.6162 387.972 29.4628 423.405Z" fill="#0C54A0"/>
</g>
<mask id="mask18_5_7" style="mask-type:luminance" maskUnits="userSpaceOnUse" x="-895" y="-245" width="2388" height="1077">
<path d="M1492.8 -244.565H-894.997V831.527H1492.8V-244.565Z" fill="white"/>
</mask>
<g mask="url(#mask18_5_7)">
<path d="M581.402 388.182C589.614 363.083 594.668 336.719 596.142 309.932H582.244C579.085 366.669 559.29 418.765 527.703 462.003C531.072 465.167 534.652 468.33 538.022 471.705C555.5 448.082 569.398 422.14 579.085 394.932L581.402 388.182Z" fill="#0C54A0"/>
</g>
<mask id="mask19_5_7" style="mask-type:luminance" maskUnits="userSpaceOnUse" x="-895" y="-245" width="2388" height="1077">
<path d="M1492.8 -244.565H-894.997V831.527H1492.8V-244.565Z" fill="white"/>
</mask>
<g mask="url(#mask19_5_7)">
<path d="M427.465 116.101C391.245 89.5259 346.602 73.9182 298.378 73.9182C287.428 73.9182 276.477 74.7618 265.948 76.2382V89.7368C276.477 88.0495 287.428 87.2059 298.378 87.2059C320.489 87.2059 341.758 90.7914 361.553 97.1189C384.507 104.501 412.725 118.843 434.836 139.091C437.995 135.927 441.153 132.975 444.523 129.811C441.785 127.28 438.837 124.96 435.889 122.429L427.465 116.101ZM482.217 173.681C475.057 162.714 467.055 152.59 458.211 143.099C455.052 146.262 451.893 149.215 448.734 152.379C481.585 187.391 502.433 233.581 504.539 284.834H517.806C516.332 246.869 505.171 211.435 486.85 180.852L482.217 173.681ZM150.338 455.465C177.503 480.353 210.986 498.702 248.049 507.35V493.64C185.716 478.033 134.544 433.74 109.275 375.739C105.273 377.848 101.483 379.957 97.4819 382.066C108.643 407.165 124.226 429.944 143.6 449.137L150.338 455.465ZM436.731 482.04C397.984 510.514 350.182 527.387 298.378 527.387C232.255 527.387 172.449 499.757 129.912 455.465L124.015 448.926C87.1633 407.587 64.8415 352.96 64.8415 293.481C64.8415 164.401 169.712 59.5759 298.378 59.5759C356.288 59.5759 409.566 80.8784 450.419 116.101L457.579 122.64C473.794 137.826 487.903 155.121 499.274 174.314L503.065 180.852C521.596 214.388 532.125 252.775 532.125 293.692C532.125 367.091 498.221 432.686 445.154 475.713L436.731 482.04ZM434.836 448.083C397.352 481.196 348.707 499.968 298.378 499.968C287.217 499.968 276.477 499.124 265.948 497.437V510.936C276.477 512.623 287.428 513.256 298.378 513.256C339.652 513.256 378.189 501.866 411.04 482.04L421.148 475.502C429.361 469.807 437.363 463.69 444.733 456.941C441.575 453.988 438.205 451.036 434.836 448.083ZM124.226 455.465C167.606 502.288 229.728 531.605 298.378 531.605C353.13 531.605 403.459 513.045 443.68 481.829L451.682 475.291C503.275 431.631 536.126 366.247 536.126 293.271C536.126 252.353 525.808 213.966 507.698 180.431L504.118 173.892C492.957 154.91 479.479 137.404 463.686 122.218L456.947 116.101C414.83 78.3474 359.237 55.3576 298.378 55.3576C167.185 55.3576 60.6299 162.292 60.6299 293.481C60.6299 352.96 82.5305 407.165 118.54 448.926L124.226 455.465ZM534.02 174.103L537.179 180.642C553.394 214.81 562.449 253.197 562.449 293.481C562.449 363.927 534.863 428.046 489.798 475.502L483.48 482.04C435.889 529.074 370.397 557.97 298.589 557.97C213.934 557.97 138.546 517.896 90.1115 455.465L85.2681 448.926C53.4701 405.267 34.5176 351.483 34.5176 293.481C34.5176 147.739 152.865 28.9931 298.589 28.9931C376.083 28.9931 445.786 62.5287 494.01 115.89L499.695 122.429C512.962 138.247 524.544 155.543 534.02 174.103ZM494.431 499.968C477.374 516.208 458.211 530.551 437.573 542.151C437.784 542.573 437.995 543.206 438.416 543.628C440.311 547.213 442.206 551.01 444.102 554.595C467.687 541.307 489.587 524.856 509.172 505.03C515.489 498.702 521.385 492.164 527.071 485.415C523.702 482.251 520.333 479.298 517.174 476.135C509.593 484.149 502.433 492.375 494.431 499.968ZM561.607 186.125C575.084 218.817 582.455 254.673 582.665 292.216H596.564C596.564 281.459 595.932 270.703 594.668 259.946L593.826 253.407C592.984 246.658 591.72 240.12 590.457 233.37L588.983 226.832C585.403 211.013 580.559 195.406 574.242 180.431L561.607 186.125ZM541.18 174.103C532.125 155.543 520.964 138.247 507.908 122.429L502.433 115.89C452.735 58.7322 379.663 22.4547 298.167 22.4547C149.075 22.4547 27.5684 143.942 27.5684 293.481C27.5684 441.755 148.022 564.508 298.167 564.508C374.188 564.508 443.049 532.871 492.325 482.04L498.432 475.502C542.023 427.413 568.767 363.505 568.767 293.481C568.767 253.197 559.922 215.021 544.128 180.642L541.18 174.103Z" fill="#0C54A0"/>
</g>
<mask id="mask20_5_7" style="mask-type:luminance" maskUnits="userSpaceOnUse" x="-895" y="-245" width="2388" height="1077">
<path d="M1492.8 -244.565H-894.997V831.527H1492.8V-244.565Z" fill="white"/>
</mask>
<g mask="url(#mask20_5_7)">
<path d="M436.099 293.059C436.099 369.411 374.398 431.209 298.167 431.209C221.936 431.209 160.235 369.411 160.235 293.059C160.235 216.708 221.936 154.909 298.167 154.909C374.398 154.909 436.099 216.919 436.099 293.059Z" fill="#0C54A0"/>
</g>
</svg>
