<svg width="50" height="50" viewBox="0 0 50 50" fill="none" xmlns="http://www.w3.org/2000/svg">
<path d="M18.8223 34.4854H16.0674" stroke="#0C54A0" stroke-width="0.878906" stroke-linecap="round" stroke-linejoin="round"/>
<path d="M11.7363 34.4854H8.98145V31.7305" stroke="#0C54A0" stroke-width="0.878906" stroke-linecap="round" stroke-linejoin="round"/>
<path d="M8.98145 27.4668V24.7119H11.7363" stroke="#0C54A0" stroke-width="0.878906" stroke-linecap="round" stroke-linejoin="round"/>
<path d="M17.4209 24.7119H20.1758" stroke="#0C54A0" stroke-width="0.878906" stroke-linecap="round" stroke-linejoin="round"/>
<path d="M23.4512 27.9873V32.0205" stroke="#0C54A0" stroke-width="0.878906" stroke-miterlimit="10"/>
<path d="M23.4512 17.6377V21.4365" stroke="#0C54A0" stroke-width="0.878906" stroke-miterlimit="10"/>
<path d="M26.7266 24.7119H35.248" stroke="#0C54A0" stroke-width="0.878906" stroke-miterlimit="10"/>
<path d="M28.0107 34.4854H36.8057C36.98 34.4855 37.1527 34.4512 37.3138 34.3846C37.475 34.318 37.6214 34.2202 37.7447 34.097C37.8681 33.9737 37.9659 33.8274 38.0327 33.6663C38.0994 33.5052 38.1338 33.3326 38.1338 33.1582V27.5918" stroke="#0C54A0" stroke-width="0.878906" stroke-miterlimit="10"/>
<path d="M23.4512 27.9873C25.2601 27.9873 26.7266 26.5209 26.7266 24.7119C26.7266 22.903 25.2601 21.4365 23.4512 21.4365C21.6422 21.4365 20.1758 22.903 20.1758 24.7119C20.1758 26.5209 21.6422 27.9873 23.4512 27.9873Z" stroke="#0C54A0" stroke-width="0.878906" stroke-miterlimit="10"/>
<path d="M26.4521 13.0488H20.4512C19.1843 13.0488 18.1572 14.0759 18.1572 15.3428V15.3438C18.1572 16.6107 19.1843 17.6377 20.4512 17.6377H26.4521C27.7191 17.6377 28.7461 16.6107 28.7461 15.3438V15.3428C28.7461 14.0759 27.7191 13.0488 26.4521 13.0488Z" stroke="#0C54A0" stroke-width="0.878906" stroke-miterlimit="10"/>
<path d="M40.3389 21.8262H35.9277C35.5524 21.8262 35.248 22.1305 35.248 22.5059V26.917C35.248 27.2924 35.5524 27.5967 35.9277 27.5967H40.3389C40.7142 27.5967 41.0186 27.2924 41.0186 26.917V22.5059C41.0186 22.1305 40.7142 21.8262 40.3389 21.8262Z" stroke="#0C54A0" stroke-width="0.878906" stroke-miterlimit="10"/>
<path d="M27.3311 32.0205H19.502C19.1266 32.0205 18.8223 32.3248 18.8223 32.7002V36.2715C18.8223 36.6469 19.1266 36.9512 19.502 36.9512H27.3311C27.7064 36.9512 28.0107 36.6469 28.0107 36.2715V32.7002C28.0107 32.3248 27.7064 32.0205 27.3311 32.0205Z" stroke="#0C54A0" stroke-width="0.878906" stroke-miterlimit="10"/>
</svg>
