<svg width="50" height="50" viewBox="0 0 50 50" fill="none" xmlns="http://www.w3.org/2000/svg">
<g clip-path="url(#clip0_1149_1527)">
<path d="M22.1151 19.2812C22.1151 18.7998 22.1425 18.3251 22.4804 17.9453C22.6422 17.7621 22.8402 17.6145 23.0619 17.5116C23.2835 17.4088 23.5241 17.3529 23.7684 17.3476C24.1773 17.348 24.5718 17.498 24.8777 17.7693C25.1835 18.0406 25.3795 18.4144 25.4286 18.8203C25.4286 19.6064 25.4804 20.3984 25.5058 21.1855L25.5585 22.7783C26.4053 22.3753 27.0889 21.6951 27.496 20.8503C27.9032 20.0055 28.0093 19.047 27.797 18.1336C27.5846 17.2202 27.0664 16.4068 26.3283 15.8283C25.5903 15.2498 24.6766 14.941 23.739 14.953C22.8013 14.965 21.8958 15.2971 21.1728 15.8942C20.4498 16.4914 19.9525 17.3177 19.7636 18.2363C19.5746 19.1548 19.7052 20.1103 20.1338 20.9444C20.5624 21.7785 21.2632 22.4411 22.12 22.8222V21.207L22.1151 19.2812Z" stroke="#0C54A0" stroke-width="0.878906" stroke-linecap="round" stroke-linejoin="round"/>
<path d="M25.5586 22.7783L25.5059 21.1855C25.4805 20.3984 25.4287 19.6064 25.4287 18.8203C25.3796 18.4145 25.1836 18.0406 24.8778 17.7693C24.5719 17.498 24.1774 17.348 23.7686 17.3477C23.5242 17.353 23.2837 17.4088 23.062 17.5117C22.8403 17.6146 22.6423 17.7622 22.4805 17.9453C22.1426 18.3252 22.1152 18.7998 22.1152 19.2813V21.207V22.8223" stroke="#0C54A0" stroke-width="0.878906" stroke-linecap="round" stroke-linejoin="round"/>
<path d="M22.125 26.544C18.8535 25.6914 16.1797 22.6045 16.1797 19.0655C16.1683 18.0587 16.3567 17.0598 16.7341 16.1264C17.1115 15.193 17.6702 14.3437 18.3781 13.6278C19.086 12.9119 19.9288 12.3435 20.8579 11.9556C21.787 11.5677 22.7837 11.3679 23.7905 11.3679C24.7973 11.3679 25.7941 11.5677 26.7232 11.9556C27.6522 12.3435 28.4951 12.9119 29.2029 13.6278C29.9108 14.3437 30.4696 15.193 30.847 16.1264C31.2243 17.0598 31.4128 18.0587 31.4014 19.0655C31.4106 20.2154 31.1552 21.352 30.6548 22.3873C30.1544 23.4227 29.4224 24.329 28.5156 25.0362" stroke="#0C54A0" stroke-width="0.878906" stroke-linecap="round" stroke-linejoin="round"/>
<path d="M33.758 32.2383L33.6037 27.5283C33.593 27.208 33.4875 26.1377 32.5754 25.8457C32.1806 25.7231 31.7536 25.7581 31.384 25.9434L31.303 25.9502H31.2776C31.1018 25.3643 30.6975 24.998 30.1145 24.917C29.4114 24.8193 28.9338 25.043 28.6496 25.2646C28.3391 24.6514 27.7463 24.3457 26.9621 24.4365C26.7009 24.4672 26.4488 24.5511 26.2212 24.6829C25.9936 24.8148 25.7955 24.9918 25.6389 25.2031L25.5061 21.1865C25.4807 20.3994 25.4289 19.6074 25.4289 18.8213C25.3798 18.4154 25.1838 18.0416 24.878 17.7703C24.5722 17.499 24.1776 17.349 23.7688 17.3486C23.5245 17.354 23.2839 17.4098 23.0622 17.5127C22.8405 17.6155 22.6425 17.7632 22.4807 17.9463C22.1428 18.3262 22.1155 18.8008 22.1155 19.2822V21.208L22.1223 26.5449C22.0901 26.7109 22.1907 30.4189 22.1907 30.4189C21.8674 30.1094 21.5071 29.7559 21.1809 29.417C20.4221 28.623 19.0598 28.1182 18.1623 28.0498C17.6897 28.0107 17.3332 28.0879 17.0998 28.2754C17.0235 28.3375 16.9514 28.4047 16.884 28.4766C16.4377 28.9463 16.1135 29.6914 16.4534 30.2187C16.5998 30.4492 16.844 30.5967 17.1047 30.752C17.4475 30.96 18.0227 31.1768 18.467 31.707C19.2112 32.5977 20.9328 34.585 21.9826 35.6426C22.1975 35.7666 22.6604 36.1982 22.8752 36.3047C23.5295 36.6953 24.0666 37.0615 24.2541 37.2646C24.4026 37.4219 25.2561 37.8252 25.2561 37.8252C25.9494 38.2324 27.1975 38.5937 28.6252 38.5459C30.053 38.498 31.3469 38.5459 32.2746 37.667H32.3264L32.3498 37.6025C32.828 37.1469 33.2053 36.5961 33.4576 35.9857C33.7099 35.3753 33.8316 34.7189 33.8147 34.0586C33.8069 33.7178 33.7668 32.4727 33.758 32.2383Z" stroke="#0C54A0" stroke-width="0.878906" stroke-linecap="round" stroke-linejoin="round"/>
</g>
<defs>
<clipPath id="clip0_1149_1527">
<rect width="50" height="50" fill="white"/>
</clipPath>
</defs>
</svg>
