<svg width="50" height="50" viewBox="0 0 50 50" fill="none" xmlns="http://www.w3.org/2000/svg">
<path d="M10.1309 29.3046C9.05748 27.6873 8.6274 25.7273 8.92505 23.8091C9.2227 21.891 10.2266 20.1535 11.7396 18.9376C13.2527 17.7217 15.1656 17.1152 17.1028 17.2373C19.04 17.3595 20.8616 18.2013 22.21 19.5976" stroke="#0C54A0" stroke-linecap="round" stroke-linejoin="round"/>
<path d="M24.1533 26.9189C23.3301 30.3369 20.2783 32.7783 16.6123 32.7783C15.376 32.7889 14.1562 32.4947 13.0605 31.9219" stroke="#0C54A0" stroke-linecap="round" stroke-linejoin="round"/>
<path d="M22.3818 15.4004V19.7695H18.0127" stroke="#0C54A0" stroke-linecap="round" stroke-linejoin="round"/>
<path d="M39.8115 23.5264C39.9067 24.0118 39.9535 24.5054 39.9512 25C39.9513 26.5479 39.4896 28.0606 38.6252 29.3447C37.7608 30.6288 36.533 31.6258 35.0988 32.2081C33.6646 32.7905 32.0893 32.9318 30.5744 32.614C29.0595 32.2961 27.6739 31.5336 26.5947 30.4238" stroke="#0C54A0" stroke-linecap="round" stroke-linejoin="round"/>
<path d="M24.6504 23.001C25.0191 21.6163 25.763 20.3602 26.8001 19.3713C27.8372 18.3824 29.1272 17.699 30.5279 17.3965C31.9286 17.0941 33.3856 17.1842 34.7384 17.657C36.0911 18.1299 37.287 18.967 38.1943 20.0762" stroke="#0C54A0" stroke-linecap="round" stroke-linejoin="round"/>
<path d="M26.4014 34.5996V30.2305H30.7715" stroke="#0C54A0" stroke-linecap="round" stroke-linejoin="round"/>
<path d="M11.4531 32.7549C12.5259 32.7549 13.3955 31.8852 13.3955 30.8125C13.3955 29.7398 12.5259 28.8701 11.4531 28.8701C10.3804 28.8701 9.51074 29.7398 9.51074 30.8125C9.51074 31.8852 10.3804 32.7549 11.4531 32.7549Z" stroke="#0C54A0" stroke-linecap="round" stroke-linejoin="round"/>
<path d="M24.459 26.9424C25.5317 26.9424 26.4014 26.0727 26.4014 25C26.4014 23.9273 25.5317 23.0576 24.459 23.0576C23.3862 23.0576 22.5166 23.9273 22.5166 25C22.5166 26.0727 23.3862 26.9424 24.459 26.9424Z" stroke="#0C54A0" stroke-linecap="round" stroke-linejoin="round"/>
<path d="M39.2246 23.6162C40.2974 23.6162 41.167 22.7466 41.167 21.6738C41.167 20.6011 40.2974 19.7314 39.2246 19.7314C38.1519 19.7314 37.2822 20.6011 37.2822 21.6738C37.2822 22.7466 38.1519 23.6162 39.2246 23.6162Z" stroke="#0C54A0" stroke-linecap="round" stroke-linejoin="round"/>
</svg>
