<svg width="50" height="50" viewBox="0 0 50 50" fill="none" xmlns="http://www.w3.org/2000/svg">
<g clip-path="url(#clip0_1149_228)">
<path d="M16.6162 33.3662L12.5898 37.3926" stroke="#2350BA" stroke-width="0.878906" stroke-linecap="round" stroke-linejoin="round"/>
<path d="M21.5996 28.3828L18.7998 31.1826" stroke="#2350BA" stroke-width="0.878906" stroke-linecap="round" stroke-linejoin="round"/>
<path d="M12.5898 31.8076V37.3926L18.1436 37.3965" stroke="#2350BA" stroke-width="0.878906" stroke-linecap="round" stroke-linejoin="round"/>
<path d="M33.3887 33.3711L37.4102 37.3926" stroke="#2350BA" stroke-width="0.878906" stroke-linecap="round" stroke-linejoin="round"/>
<path d="M28.4004 28.3828L31.1777 31.1602" stroke="#2350BA" stroke-width="0.878906" stroke-linecap="round" stroke-linejoin="round"/>
<path d="M37.4102 31.8076V37.3926L31.8564 37.3965" stroke="#2350BA" stroke-width="0.878906" stroke-linecap="round" stroke-linejoin="round"/>
<path d="M16.6191 16.6221L12.6172 12.6074" stroke="#2350BA" stroke-width="0.878906" stroke-linecap="round" stroke-linejoin="round"/>
<path d="M21.5996 21.6172L18.7998 18.8096" stroke="#2350BA" stroke-width="0.878906" stroke-linecap="round" stroke-linejoin="round"/>
<path d="M12.5898 18.1924V12.6348C12.5901 12.6276 12.593 12.6208 12.5981 12.6157C12.6032 12.6106 12.61 12.6077 12.6172 12.6074H18.1436" stroke="#2350BA" stroke-width="0.878906" stroke-linecap="round" stroke-linejoin="round"/>
<path d="M33.3926 16.625L37.4102 12.6074" stroke="#2350BA" stroke-width="0.878906" stroke-linecap="round" stroke-linejoin="round"/>
<path d="M28.4004 21.6172L31.209 18.8086" stroke="#2350BA" stroke-width="0.878906" stroke-linecap="round" stroke-linejoin="round"/>
<path d="M37.4102 18.1924V12.6074L31.8564 12.6035" stroke="#2350BA" stroke-width="0.878906" stroke-linecap="round" stroke-linejoin="round"/>
<path d="M17.7119 19.2568C18.5646 19.2568 19.2559 18.5656 19.2559 17.7129C19.2559 16.8602 18.5646 16.1689 17.7119 16.1689C16.8592 16.1689 16.168 16.8602 16.168 17.7129C16.168 18.5656 16.8592 19.2568 17.7119 19.2568Z" stroke="#2350BA" stroke-width="0.878906" stroke-linecap="round" stroke-linejoin="round"/>
<path d="M32.2969 19.2568C33.1496 19.2568 33.8408 18.5656 33.8408 17.7129C33.8408 16.8602 33.1496 16.1689 32.2969 16.1689C31.4442 16.1689 30.7529 16.8602 30.7529 17.7129C30.7529 18.5656 31.4442 19.2568 32.2969 19.2568Z" stroke="#2350BA" stroke-width="0.878906" stroke-linecap="round" stroke-linejoin="round"/>
<path d="M17.7119 33.8223C18.5646 33.8223 19.2559 33.131 19.2559 32.2783C19.2559 31.4256 18.5646 30.7344 17.7119 30.7344C16.8592 30.7344 16.168 31.4256 16.168 32.2783C16.168 33.131 16.8592 33.8223 17.7119 33.8223Z" stroke="#2350BA" stroke-width="0.878906" stroke-linecap="round" stroke-linejoin="round"/>
<path d="M32.2969 33.8223C33.1496 33.8223 33.8408 33.131 33.8408 32.2783C33.8408 31.4256 33.1496 30.7344 32.2969 30.7344C31.4442 30.7344 30.7529 31.4256 30.7529 32.2783C30.7529 33.131 31.4442 33.8223 32.2969 33.8223Z" stroke="#2350BA" stroke-width="0.878906" stroke-linecap="round" stroke-linejoin="round"/>
</g>
<defs>
<clipPath id="clip0_1149_228">
<rect width="50" height="50" fill="white"/>
</clipPath>
</defs>
</svg>
