<svg width="50" height="50" viewBox="0 0 50 50" fill="none" xmlns="http://www.w3.org/2000/svg">
<g clip-path="url(#clip0_1149_808)">
<path d="M17.8936 37.9727H32.1064" stroke="#2350BA" stroke-width="0.878906" stroke-linecap="round" stroke-linejoin="round"/>
<path d="M27.7549 32.499H22.2451V37.9727H27.7549V32.499Z" stroke="#2350BA" stroke-width="0.878906" stroke-linecap="round" stroke-linejoin="round"/>
<path d="M37.8047 12.0273H12.1963C11.0205 12.0273 10.0674 12.9805 10.0674 14.1563V30.3701C10.0674 31.5459 11.0205 32.499 12.1963 32.499H37.8047C38.9804 32.499 39.9336 31.5459 39.9336 30.3701V14.1563C39.9336 12.9805 38.9804 12.0273 37.8047 12.0273Z" stroke="#2350BA" stroke-width="0.878906" stroke-linecap="round" stroke-linejoin="round"/>
<path d="M24.5323 15.6611C23.8702 16.2607 22.3838 17.3066 19.3311 18.3281C19.1724 18.3798 19.0381 18.4878 18.9536 18.6318C18.869 18.7757 18.84 18.9455 18.8721 19.1093C19.1407 20.5898 20.2452 24.6093 24.5118 28.8154C24.6412 28.9421 24.815 29.013 24.9961 29.013C25.1772 29.013 25.3511 28.9421 25.4805 28.8154C29.751 24.6162 30.8516 20.5898 31.1241 19.1054C31.1561 18.9416 31.1272 18.7718 31.0426 18.6278C30.9581 18.4839 30.8238 18.3759 30.6651 18.3242C27.6133 17.3027 26.126 16.2568 25.4639 15.6572C25.3355 15.5428 25.1693 15.48 24.9973 15.4807C24.8254 15.4814 24.6597 15.5457 24.5323 15.6611Z" stroke="#2350BA" stroke-width="0.878906" stroke-linecap="round" stroke-linejoin="round"/>
<path d="M27.0898 20.3408L24.2451 24.2266L22.9102 22.8877" stroke="#2350BA" stroke-width="0.878906" stroke-linecap="round" stroke-linejoin="round"/>
</g>
<defs>
<clipPath id="clip0_1149_808">
<rect width="50" height="50" fill="white"/>
</clipPath>
</defs>
</svg>
