<svg width="1920" height="350" viewBox="0 0 1920 350" fill="none" xmlns="http://www.w3.org/2000/svg">
<rect width="1920" height="350" fill="#EBECEC"/>
<g opacity="0.5">
<path d="M1482.03 44.9372L1470.22 56.7388V73.4287C1470.22 74.4063 1469.45 75.1745 1468.47 75.1745H1454.08L1454.29 72.7304L1454.5 69.9371C1455.06 62.884 1456.87 56.1103 1459.81 49.7556C1462.39 44.0992 1465.96 38.8618 1470.22 34.3227C1470.71 33.7641 1471.27 33.2752 1471.75 32.7166C1471.82 32.6467 1471.89 32.5769 1471.96 32.4373L1482.03 42.4931C1482.66 43.1216 1482.66 44.2389 1482.03 44.9372Z" fill="#0C54A0"/>
<path d="M1449.89 76.99L1439.96 86.976C1439.26 87.6743 1438.15 87.6743 1437.52 86.976L1425.71 75.1744H1409.01C1408.03 75.1744 1407.26 74.4062 1407.26 73.4286V59.0432L1409.78 59.2526L1412.43 59.4621C1425.71 60.5096 1438.29 66.0962 1448 75.1045C1448.56 75.6632 1449.12 76.152 1449.68 76.7106C1449.75 76.8503 1449.82 76.9202 1449.89 76.99Z" fill="#0C54A0"/>
<path d="M1423.26 12.2556L1423.05 14.8394L1422.84 17.493C1421.8 30.7611 1416.28 43.261 1407.26 52.9677C1406.7 53.5263 1406.14 54.1548 1405.59 54.7135C1405.52 54.7833 1405.45 54.8532 1405.45 54.8532L1395.52 44.937C1394.83 44.2387 1394.83 43.1214 1395.52 42.4929L1407.33 30.6913V14.0014C1407.33 13.0238 1408.1 12.2556 1409.08 12.2556H1423.26Z" fill="#0C54A0"/>
<path d="M1470.22 14.0013V28.3169C1470.22 28.3169 1470.22 28.3169 1470.15 28.3169L1467.63 28.1074L1464.84 27.8979C1457.78 27.3392 1451 25.5236 1444.64 22.5907C1439.05 20.0069 1433.81 16.5153 1429.27 12.2555C1428.71 11.6969 1428.15 11.208 1427.6 10.6494C1427.53 10.5796 1427.46 10.5097 1427.46 10.5097L1437.45 0.52374C1438.15 -0.17458 1439.26 -0.17458 1439.89 0.52374L1451.7 12.3254H1468.4C1469.38 12.2555 1470.22 13.0237 1470.22 14.0013Z" fill="#0C54A0"/>
</g>
<g opacity="0.5">
<path d="M1569.52 44.9372L1557.72 56.7388V73.4287C1557.72 74.4063 1556.95 75.1745 1555.97 75.1745H1541.58L1541.79 72.7304L1541.99 69.9371C1542.55 62.884 1544.37 56.1103 1547.31 49.7556C1549.89 44.0992 1553.45 38.8618 1557.72 34.3227C1558.21 33.7641 1558.76 33.2752 1559.25 32.7166C1559.32 32.6467 1559.39 32.5769 1559.46 32.4373L1569.52 42.4931C1570.15 43.1216 1570.15 44.2389 1569.52 44.9372Z" fill="#0C54A0"/>
<path d="M1537.38 76.99L1527.46 86.976C1526.76 87.6743 1525.64 87.6743 1525.02 86.976L1513.21 75.1744H1496.51C1495.53 75.1744 1494.76 74.4062 1494.76 73.4286V59.0432L1497.28 59.2526L1499.93 59.4621C1513.21 60.5096 1525.78 66.0962 1535.5 75.1045C1536.06 75.6632 1536.61 76.152 1537.17 76.7106C1537.24 76.8503 1537.31 76.9202 1537.38 76.99Z" fill="#0C54A0"/>
<path d="M1510.76 12.2556L1510.55 14.8393L1510.34 17.493C1509.29 30.761 1503.77 43.261 1494.76 52.9676C1494.2 53.5263 1493.64 54.1548 1493.08 54.7134C1493.01 54.7833 1492.94 54.8531 1492.94 54.8531L1483.02 44.9369C1482.32 44.2386 1482.32 43.1213 1483.02 42.4928L1494.83 30.6912V14.0014C1494.83 13.0237 1495.6 12.2556 1496.58 12.2556H1510.76Z" fill="#0C54A0"/>
<path d="M1557.72 14.0013V28.3169C1557.72 28.3169 1557.72 28.3169 1557.65 28.3169L1555.13 28.1074L1552.34 27.8979C1545.28 27.3392 1538.5 25.5236 1532.14 22.5907C1526.55 20.0069 1521.31 16.5153 1516.77 12.2555C1516.21 11.6969 1515.65 11.208 1515.09 10.6494C1515.02 10.5796 1514.95 10.5097 1514.95 10.5097L1524.95 0.52374C1525.64 -0.17458 1526.76 -0.17458 1527.39 0.52374L1539.2 12.3254H1555.9C1556.88 12.2555 1557.72 13.0237 1557.72 14.0013Z" fill="#0C54A0"/>
</g>
<g opacity="0.5">
<path d="M1482.03 132.437L1470.22 144.239V160.929C1470.22 161.906 1469.45 162.674 1468.47 162.674H1454.08L1454.29 160.23L1454.5 157.437C1455.06 150.384 1456.87 143.61 1459.81 137.256C1462.39 131.599 1465.96 126.362 1470.22 121.823C1470.71 121.264 1471.27 120.775 1471.76 120.217C1471.83 120.147 1471.9 120.077 1471.97 119.937L1482.03 129.993C1482.66 130.621 1482.66 131.739 1482.03 132.437Z" fill="#0C54A0"/>
<path d="M1449.89 164.49L1439.96 174.476C1439.26 175.174 1438.15 175.174 1437.52 174.476L1425.71 162.674H1409.01C1408.03 162.674 1407.26 161.906 1407.26 160.928V146.543L1409.78 146.753L1412.43 146.962C1425.71 148.01 1438.29 153.596 1448 162.604C1448.56 163.163 1449.12 163.652 1449.68 164.211C1449.75 164.35 1449.82 164.42 1449.89 164.49Z" fill="#0C54A0"/>
<path d="M1423.26 99.7556L1423.05 102.339L1422.84 104.993C1421.8 118.261 1416.28 130.761 1407.26 140.468C1406.7 141.026 1406.14 141.655 1405.59 142.213C1405.52 142.283 1405.45 142.353 1405.45 142.353L1395.52 132.437C1394.83 131.739 1394.83 130.621 1395.52 129.993L1407.33 118.191V101.501C1407.33 100.524 1408.1 99.7556 1409.08 99.7556H1423.26Z" fill="#0C54A0"/>
<path d="M1470.22 101.501V115.817C1470.22 115.817 1470.22 115.817 1470.15 115.817L1467.63 115.607L1464.84 115.398C1457.78 114.839 1451 113.024 1444.64 110.091C1439.05 107.507 1433.81 104.015 1429.27 99.7555C1428.71 99.1968 1428.15 98.708 1427.6 98.1493C1427.53 98.0795 1427.46 98.0097 1427.46 98.0097L1437.45 88.0237C1438.15 87.3254 1439.26 87.3254 1439.89 88.0237L1451.7 99.8253H1468.4C1469.38 99.7555 1470.22 100.524 1470.22 101.501Z" fill="#0C54A0"/>
</g>
<g opacity="0.5">
<path d="M1569.52 132.437L1557.72 144.239V160.929C1557.72 161.906 1556.95 162.674 1555.97 162.674H1541.58L1541.79 160.23L1541.99 157.437C1542.55 150.384 1544.37 143.61 1547.31 137.256C1549.89 131.599 1553.45 126.362 1557.72 121.823C1558.21 121.264 1558.76 120.775 1559.25 120.217C1559.32 120.147 1559.39 120.077 1559.46 119.937L1569.52 129.993C1570.15 130.621 1570.15 131.739 1569.52 132.437Z" fill="#0C54A0"/>
<path d="M1537.38 164.49L1527.46 174.476C1526.76 175.174 1525.64 175.174 1525.02 174.476L1513.21 162.674H1496.51C1495.53 162.674 1494.76 161.906 1494.76 160.928V146.543L1497.28 146.753L1499.93 146.962C1513.21 148.01 1525.78 153.596 1535.5 162.604C1536.06 163.163 1536.61 163.652 1537.17 164.211C1537.24 164.35 1537.31 164.42 1537.38 164.49Z" fill="#0C54A0"/>
<path d="M1510.76 99.7557L1510.55 102.339L1510.34 104.993C1509.29 118.261 1503.77 130.761 1494.76 140.468C1494.2 141.026 1493.64 141.655 1493.08 142.214C1493.01 142.283 1492.94 142.353 1492.94 142.353L1483.02 132.437C1482.32 131.739 1482.32 130.621 1483.02 129.993L1494.83 118.191V101.501C1494.83 100.524 1495.6 99.7557 1496.58 99.7557H1510.76Z" fill="#0C54A0"/>
<path d="M1557.72 101.501V115.817C1557.72 115.817 1557.72 115.817 1557.65 115.817L1555.13 115.607L1552.34 115.398C1545.28 114.839 1538.5 113.024 1532.14 110.091C1526.55 107.507 1521.31 104.015 1516.77 99.7555C1516.21 99.1968 1515.65 98.708 1515.09 98.1493C1515.02 98.0795 1514.95 98.0097 1514.95 98.0097L1524.95 88.0237C1525.64 87.3254 1526.76 87.3254 1527.39 88.0237L1539.2 99.8253H1555.9C1556.88 99.7555 1557.72 100.524 1557.72 101.501Z" fill="#0C54A0"/>
</g>
<g opacity="0.5">
<path d="M1657.02 44.9372L1645.21 56.7388V73.4287C1645.21 74.4063 1644.45 75.1745 1643.47 75.1745H1629.07L1629.28 72.7304L1629.49 69.9371C1630.05 62.884 1631.87 56.1103 1634.8 49.7556C1637.39 44.0992 1640.95 38.8618 1645.21 34.3227C1645.7 33.7641 1646.26 33.2752 1646.75 32.7166C1646.82 32.6467 1646.89 32.5769 1646.96 32.4373L1657.02 42.4931C1657.65 43.1216 1657.65 44.2389 1657.02 44.9372Z" fill="#0C54A0"/>
<path d="M1624.88 76.99L1614.96 86.976C1614.26 87.6743 1613.14 87.6743 1612.51 86.976L1600.71 75.1744H1584.01C1583.03 75.1744 1582.26 74.4062 1582.26 73.4286V59.0432L1584.77 59.2526L1587.43 59.4621C1600.71 60.5096 1613.28 66.0962 1623 75.1045C1623.55 75.6632 1624.11 76.152 1624.67 76.7106C1624.74 76.8503 1624.81 76.9202 1624.88 76.99Z" fill="#0C54A0"/>
<path d="M1598.26 12.2556L1598.05 14.8393L1597.84 17.493C1596.79 30.761 1591.27 43.261 1582.26 52.9676C1581.7 53.5263 1581.14 54.1548 1580.58 54.7134C1580.51 54.7833 1580.44 54.8531 1580.44 54.8531L1570.52 44.9369C1569.82 44.2386 1569.82 43.1213 1570.52 42.4928L1582.33 30.6912V14.0014C1582.33 13.0237 1583.1 12.2556 1584.08 12.2556H1598.26Z" fill="#0C54A0"/>
<path d="M1645.21 14.0013V28.3169C1645.21 28.3169 1645.21 28.3169 1645.14 28.3169L1642.63 28.1074L1639.83 27.8979C1632.78 27.3392 1626 25.5236 1619.64 22.5907C1614.05 20.0069 1608.81 16.5153 1604.27 12.2555C1603.71 11.6969 1603.15 11.208 1602.59 10.6494C1602.52 10.5796 1602.45 10.5097 1602.45 10.5097L1612.44 0.52374C1613.14 -0.17458 1614.26 -0.17458 1614.89 0.52374L1626.7 12.3254H1643.4C1644.38 12.2555 1645.21 13.0237 1645.21 14.0013Z" fill="#0C54A0"/>
</g>
<g opacity="0.5">
<path d="M1744.52 44.9372L1732.71 56.7388V73.4287C1732.71 74.4063 1731.94 75.1745 1730.97 75.1745H1716.57L1716.78 72.7304L1716.99 69.9371C1717.55 62.884 1719.37 56.1103 1722.3 49.7556C1724.89 44.0992 1728.45 38.8618 1732.71 34.3227C1733.2 33.7641 1733.76 33.2752 1734.25 32.7166C1734.32 32.6467 1734.39 32.5769 1734.46 32.4373L1744.52 42.4931C1745.15 43.1216 1745.15 44.2389 1744.52 44.9372Z" fill="#0C54A0"/>
<path d="M1712.38 76.99L1702.46 86.976C1701.76 87.6743 1700.64 87.6743 1700.01 86.976L1688.2 75.1744H1671.5C1670.53 75.1744 1669.76 74.4062 1669.76 73.4286V59.0432L1672.27 59.2526L1674.93 59.4621C1688.2 60.5096 1700.78 66.0962 1710.49 75.1045C1711.05 75.6632 1711.61 76.152 1712.17 76.7106C1712.24 76.8503 1712.31 76.9202 1712.38 76.99Z" fill="#0C54A0"/>
<path d="M1685.76 12.2556L1685.55 14.8394L1685.34 17.493C1684.29 30.7611 1678.77 43.261 1669.76 52.9677C1669.2 53.5263 1668.64 54.1548 1668.08 54.7135C1668.01 54.7833 1667.94 54.8532 1667.94 54.8532L1658.02 44.937C1657.32 44.2387 1657.32 43.1214 1658.02 42.4929L1669.83 30.6913V14.0014C1669.83 13.0238 1670.6 12.2556 1671.57 12.2556H1685.76Z" fill="#0C54A0"/>
<path d="M1732.71 14.0013V28.3169C1732.71 28.3169 1732.71 28.3169 1732.64 28.3169L1730.13 28.1074L1727.33 27.8979C1720.28 27.3392 1713.5 25.5236 1707.14 22.5907C1701.55 20.0069 1696.31 16.5153 1691.77 12.2555C1691.21 11.6969 1690.65 11.208 1690.09 10.6494C1690.02 10.5796 1689.95 10.5097 1689.95 10.5097L1699.94 0.52374C1700.64 -0.17458 1701.76 -0.17458 1702.39 0.52374L1714.2 12.3254H1730.9C1731.87 12.2555 1732.71 13.0237 1732.71 14.0013Z" fill="#0C54A0"/>
</g>
<g opacity="0.5">
<path d="M1657.02 132.437L1645.21 144.239V160.929C1645.21 161.906 1644.45 162.674 1643.47 162.674H1629.07L1629.28 160.23L1629.49 157.437C1630.05 150.384 1631.87 143.61 1634.8 137.256C1637.39 131.599 1640.95 126.362 1645.21 121.823C1645.7 121.264 1646.26 120.775 1646.75 120.217C1646.82 120.147 1646.89 120.077 1646.96 119.937L1657.02 129.993C1657.65 130.622 1657.65 131.739 1657.02 132.437Z" fill="#0C54A0"/>
<path d="M1624.88 164.49L1614.96 174.476C1614.26 175.174 1613.14 175.174 1612.51 174.476L1600.71 162.674H1584.01C1583.03 162.674 1582.26 161.906 1582.26 160.929V146.543L1584.77 146.753L1587.43 146.962C1600.71 148.01 1613.28 153.596 1622.99 162.605C1623.55 163.163 1624.11 163.652 1624.67 164.211C1624.74 164.35 1624.81 164.42 1624.88 164.49Z" fill="#0C54A0"/>
<path d="M1598.26 99.7556L1598.05 102.339L1597.84 104.993C1596.79 118.261 1591.27 130.761 1582.26 140.468C1581.7 141.026 1581.14 141.655 1580.58 142.214C1580.51 142.283 1580.44 142.353 1580.44 142.353L1570.52 132.437C1569.82 131.739 1569.82 130.621 1570.52 129.993L1582.33 118.191V101.501C1582.33 100.524 1583.1 99.7556 1584.08 99.7556H1598.26Z" fill="#0C54A0"/>
<path d="M1645.21 101.501V115.817C1645.21 115.817 1645.21 115.817 1645.14 115.817L1642.63 115.607L1639.83 115.398C1632.78 114.839 1626 113.024 1619.64 110.091C1614.05 107.507 1608.81 104.015 1604.27 99.7555C1603.71 99.1969 1603.15 98.708 1602.59 98.1494C1602.52 98.0796 1602.45 98.0097 1602.45 98.0097L1612.44 88.0237C1613.14 87.3254 1614.26 87.3254 1614.89 88.0237L1626.7 99.8254H1643.4C1644.38 99.7555 1645.21 100.524 1645.21 101.501Z" fill="#0C54A0"/>
</g>
<g opacity="0.5">
<path d="M1744.52 132.437L1732.71 144.239V160.929C1732.71 161.906 1731.94 162.674 1730.97 162.674H1716.57L1716.78 160.23L1716.99 157.437C1717.55 150.384 1719.37 143.61 1722.3 137.256C1724.89 131.599 1728.45 126.362 1732.71 121.823C1733.2 121.264 1733.76 120.775 1734.25 120.217C1734.32 120.147 1734.39 120.077 1734.46 119.937L1744.52 129.993C1745.15 130.621 1745.15 131.739 1744.52 132.437Z" fill="#0C54A0"/>
<path d="M1712.38 164.49L1702.46 174.476C1701.76 175.174 1700.64 175.174 1700.01 174.476L1688.2 162.674H1671.5C1670.53 162.674 1669.76 161.906 1669.76 160.928V146.543L1672.27 146.753L1674.93 146.962C1688.2 148.01 1700.78 153.596 1710.49 162.604C1711.05 163.163 1711.61 163.652 1712.17 164.211C1712.24 164.35 1712.31 164.42 1712.38 164.49Z" fill="#0C54A0"/>
<path d="M1685.76 99.7556L1685.55 102.339L1685.34 104.993C1684.29 118.261 1678.77 130.761 1669.76 140.468C1669.2 141.026 1668.64 141.655 1668.08 142.213C1668.01 142.283 1667.94 142.353 1667.94 142.353L1658.02 132.437C1657.32 131.739 1657.32 130.621 1658.02 129.993L1669.83 118.191V101.501C1669.83 100.524 1670.6 99.7556 1671.57 99.7556H1685.76Z" fill="#0C54A0"/>
<path d="M1732.71 101.501V115.817C1732.71 115.817 1732.71 115.817 1732.64 115.817L1730.13 115.607L1727.33 115.398C1720.27 114.839 1713.5 113.024 1707.14 110.091C1701.55 107.507 1696.31 104.015 1691.77 99.7555C1691.21 99.1968 1690.65 98.708 1690.09 98.1493C1690.02 98.0795 1689.95 98.0097 1689.95 98.0097L1699.94 88.0237C1700.64 87.3254 1701.76 87.3254 1702.39 88.0237L1714.2 99.8253H1730.9C1731.87 99.7555 1732.71 100.524 1732.71 101.501Z" fill="#0C54A0"/>
</g>
<g opacity="0.5">
<path d="M1832.02 44.9372L1820.21 56.7388V73.4287C1820.21 74.4063 1819.44 75.1745 1818.46 75.1745H1804.07L1804.28 72.7304L1804.49 69.9371C1805.05 62.884 1806.87 56.1103 1809.8 49.7556C1812.39 44.0992 1815.95 38.8618 1820.21 34.3227C1820.7 33.7641 1821.26 33.2752 1821.75 32.7166C1821.82 32.6467 1821.89 32.5769 1821.96 32.4373L1832.02 42.4931C1832.65 43.1216 1832.65 44.2389 1832.02 44.9372Z" fill="#0C54A0"/>
<path d="M1799.88 76.99L1789.96 86.976C1789.26 87.6743 1788.14 87.6743 1787.51 86.976L1775.7 75.1744H1759C1758.02 75.1744 1757.26 74.4062 1757.26 73.4286V59.0432L1759.77 59.2526L1762.43 59.4621C1775.7 60.5096 1788.28 66.0962 1797.99 75.1045C1798.55 75.6632 1799.11 76.152 1799.67 76.7106C1799.74 76.8503 1799.81 76.9202 1799.88 76.99Z" fill="#0C54A0"/>
<path d="M1773.26 12.2556L1773.05 14.8393L1772.84 17.493C1771.79 30.761 1766.27 43.261 1757.26 52.9676C1756.7 53.5263 1756.14 54.1548 1755.58 54.7134C1755.51 54.7833 1755.44 54.8531 1755.44 54.8531L1745.52 44.9369C1744.82 44.2386 1744.82 43.1213 1745.52 42.4928L1757.33 30.6912V14.0014C1757.33 13.0237 1758.09 12.2556 1759.07 12.2556H1773.26Z" fill="#0C54A0"/>
<path d="M1820.21 14.0013V28.3169C1820.21 28.3169 1820.21 28.3169 1820.14 28.3169L1817.63 28.1074L1814.83 27.8979C1807.77 27.3392 1801 25.5236 1794.64 22.5907C1789.05 20.0069 1783.81 16.5153 1779.27 12.2555C1778.71 11.6969 1778.15 11.208 1777.59 10.6494C1777.52 10.5796 1777.45 10.5097 1777.45 10.5097L1787.44 0.52374C1788.14 -0.17458 1789.26 -0.17458 1789.89 0.52374L1801.69 12.3254H1818.39C1819.37 12.2555 1820.21 13.0237 1820.21 14.0013Z" fill="#0C54A0"/>
</g>
<g opacity="0.5">
<path d="M1919.52 44.9372L1907.71 56.7388V73.4287C1907.71 74.4063 1906.94 75.1745 1905.96 75.1745H1891.57L1891.78 72.7304L1891.99 69.9371C1892.55 62.884 1894.36 56.1103 1897.3 49.7556C1899.88 44.0992 1903.45 38.8618 1907.71 34.3227C1908.2 33.7641 1908.76 33.2752 1909.25 32.7166C1909.32 32.6467 1909.39 32.5769 1909.46 32.4373L1919.52 42.4931C1920.15 43.1216 1920.15 44.2389 1919.52 44.9372Z" fill="#0C54A0"/>
<path d="M1887.38 76.99L1877.45 86.976C1876.76 87.6743 1875.64 87.6743 1875.01 86.976L1863.2 75.1744H1846.5C1845.52 75.1744 1844.75 74.4062 1844.75 73.4286V59.0432L1847.27 59.2526L1849.92 59.4621C1863.2 60.5096 1875.78 66.0962 1885.49 75.1045C1886.05 75.6632 1886.61 76.152 1887.17 76.7106C1887.24 76.8503 1887.31 76.9202 1887.38 76.99Z" fill="#0C54A0"/>
<path d="M1860.75 12.2556L1860.55 14.8394L1860.34 17.493C1859.29 30.7611 1853.77 43.261 1844.75 52.9677C1844.19 53.5263 1843.64 54.1548 1843.08 54.7135C1843.01 54.7833 1842.94 54.8532 1842.94 54.8532L1833.02 44.937C1832.32 44.2387 1832.32 43.1214 1833.02 42.4929L1844.82 30.6913V14.0014C1844.82 13.0238 1845.59 12.2556 1846.57 12.2556H1860.75Z" fill="#0C54A0"/>
<path d="M1907.71 14.0013V28.3169C1907.71 28.3169 1907.71 28.3169 1907.64 28.3169L1905.12 28.1074L1902.33 27.8979C1895.27 27.3392 1888.49 25.5236 1882.14 22.5907C1876.55 20.0069 1871.31 16.5153 1866.76 12.2555C1866.2 11.6969 1865.65 11.208 1865.09 10.6494C1865.02 10.5796 1864.95 10.5097 1864.95 10.5097L1874.94 0.52374C1875.64 -0.17458 1876.76 -0.17458 1877.38 0.52374L1889.19 12.3254H1905.89C1906.87 12.2555 1907.71 13.0237 1907.71 14.0013Z" fill="#0C54A0"/>
</g>
<g opacity="0.5">
<path d="M1832.02 132.437L1820.21 144.239V160.929C1820.21 161.906 1819.44 162.674 1818.46 162.674H1804.07L1804.28 160.23L1804.49 157.437C1805.05 150.384 1806.87 143.61 1809.8 137.256C1812.39 131.599 1815.95 126.362 1820.21 121.823C1820.7 121.264 1821.26 120.775 1821.75 120.217C1821.82 120.147 1821.89 120.077 1821.96 119.937L1832.02 129.993C1832.65 130.621 1832.65 131.739 1832.02 132.437Z" fill="#0C54A0"/>
<path d="M1799.88 164.49L1789.96 174.476C1789.26 175.174 1788.14 175.174 1787.51 174.476L1775.7 162.674H1759C1758.02 162.674 1757.26 161.906 1757.26 160.928V146.543L1759.77 146.753L1762.43 146.962C1775.7 148.01 1788.28 153.596 1797.99 162.604C1798.55 163.163 1799.11 163.652 1799.67 164.211C1799.74 164.35 1799.81 164.42 1799.88 164.49Z" fill="#0C54A0"/>
<path d="M1773.26 99.7556L1773.05 102.339L1772.84 104.993C1771.79 118.261 1766.27 130.761 1757.26 140.468C1756.7 141.026 1756.14 141.655 1755.58 142.213C1755.51 142.283 1755.44 142.353 1755.44 142.353L1745.52 132.437C1744.82 131.739 1744.82 130.621 1745.52 129.993L1757.33 118.191V101.501C1757.33 100.524 1758.09 99.7556 1759.07 99.7556H1773.26Z" fill="#0C54A0"/>
<path d="M1820.21 101.501V115.817C1820.21 115.817 1820.21 115.817 1820.14 115.817L1817.63 115.607L1814.83 115.398C1807.77 114.839 1801 113.024 1794.64 110.091C1789.05 107.507 1783.81 104.015 1779.27 99.7555C1778.71 99.1968 1778.15 98.708 1777.59 98.1493C1777.52 98.0795 1777.45 98.0097 1777.45 98.0097L1787.44 88.0237C1788.14 87.3254 1789.26 87.3254 1789.89 88.0237L1801.69 99.8253H1818.39C1819.37 99.7555 1820.21 100.524 1820.21 101.501Z" fill="#0C54A0"/>
</g>
<g opacity="0.5">
<path d="M1919.52 132.437L1907.71 144.239V160.929C1907.71 161.906 1906.94 162.674 1905.96 162.674H1891.57L1891.78 160.23L1891.99 157.437C1892.55 150.384 1894.36 143.61 1897.3 137.255C1899.88 131.599 1903.45 126.362 1907.71 121.823C1908.2 121.264 1908.76 120.775 1909.25 120.216C1909.32 120.147 1909.39 120.077 1909.46 119.937L1919.52 129.993C1920.15 130.621 1920.15 131.739 1919.52 132.437Z" fill="#0C54A0"/>
<path d="M1887.38 164.49L1877.45 174.476C1876.76 175.174 1875.64 175.174 1875.01 174.476L1863.2 162.674H1846.5C1845.52 162.674 1844.75 161.906 1844.75 160.928V146.543L1847.27 146.753L1849.92 146.962C1863.2 148.01 1875.78 153.596 1885.49 162.604C1886.05 163.163 1886.61 163.652 1887.17 164.211C1887.24 164.35 1887.31 164.42 1887.38 164.49Z" fill="#0C54A0"/>
<path d="M1860.75 99.7556L1860.54 102.339L1860.34 104.993C1859.29 118.261 1853.77 130.761 1844.75 140.468C1844.19 141.026 1843.64 141.655 1843.08 142.213C1843.01 142.283 1842.94 142.353 1842.94 142.353L1833.01 132.437C1832.32 131.739 1832.32 130.621 1833.01 129.993L1844.82 118.191V101.501C1844.82 100.524 1845.59 99.7556 1846.57 99.7556H1860.75Z" fill="#0C54A0"/>
<path d="M1907.71 101.501V115.817C1907.71 115.817 1907.71 115.817 1907.64 115.817L1905.12 115.607L1902.33 115.398C1895.27 114.839 1888.49 113.023 1882.14 110.091C1876.55 107.507 1871.31 104.015 1866.76 99.7554C1866.2 99.1967 1865.65 98.7079 1865.09 98.1493C1865.02 98.0794 1864.95 98.0096 1864.95 98.0096L1874.94 88.0236C1875.64 87.3253 1876.76 87.3253 1877.38 88.0236L1889.19 99.8252H1905.89C1906.87 99.7554 1907.71 100.524 1907.71 101.501Z" fill="#0C54A0"/>
</g>
<g opacity="0.5">
<path d="M1482.03 219.937L1470.22 231.739V248.429C1470.22 249.406 1469.45 250.174 1468.47 250.174H1454.08L1454.29 247.73L1454.5 244.937C1455.06 237.884 1456.87 231.11 1459.81 224.755C1462.39 219.099 1465.96 213.862 1470.22 209.323C1470.71 208.764 1471.27 208.275 1471.76 207.716C1471.83 207.647 1471.89 207.577 1471.96 207.437L1482.03 217.493C1482.66 218.121 1482.66 219.239 1482.03 219.937Z" fill="#0C54A0"/>
<path d="M1449.89 251.99L1439.96 261.976C1439.26 262.674 1438.15 262.674 1437.52 261.976L1425.71 250.174H1409.01C1408.03 250.174 1407.26 249.406 1407.26 248.428V234.043L1409.78 234.253L1412.43 234.462C1425.71 235.51 1438.29 241.096 1448 250.104C1448.56 250.663 1449.12 251.152 1449.68 251.711C1449.75 251.85 1449.82 251.92 1449.89 251.99Z" fill="#0C54A0"/>
<path d="M1423.26 187.256L1423.05 189.839L1422.84 192.493C1421.8 205.761 1416.28 218.261 1407.26 227.968C1406.7 228.526 1406.14 229.155 1405.59 229.713C1405.52 229.783 1405.45 229.853 1405.45 229.853L1395.52 219.937C1394.83 219.239 1394.83 218.121 1395.52 217.493L1407.33 205.691V189.001C1407.33 188.024 1408.1 187.256 1409.08 187.256H1423.26Z" fill="#0C54A0"/>
<path d="M1470.22 189.001V203.317C1470.22 203.317 1470.22 203.317 1470.15 203.317L1467.63 203.107L1464.84 202.898C1457.78 202.339 1451 200.523 1444.64 197.591C1439.05 195.007 1433.81 191.515 1429.27 187.255C1428.71 186.697 1428.15 186.208 1427.6 185.649C1427.53 185.579 1427.46 185.51 1427.46 185.51L1437.45 175.524C1438.15 174.825 1439.26 174.825 1439.89 175.524L1451.7 187.325H1468.4C1469.38 187.255 1470.22 188.024 1470.22 189.001Z" fill="#0C54A0"/>
</g>
<g opacity="0.5">
<path d="M1569.52 219.937L1557.72 231.739V248.429C1557.72 249.406 1556.95 250.174 1555.97 250.174H1541.58L1541.79 247.73L1541.99 244.937C1542.55 237.884 1544.37 231.11 1547.31 224.755C1549.89 219.099 1553.45 213.862 1557.72 209.323C1558.21 208.764 1558.76 208.275 1559.25 207.716C1559.32 207.647 1559.39 207.577 1559.46 207.437L1569.52 217.493C1570.15 218.121 1570.15 219.239 1569.52 219.937Z" fill="#0C54A0"/>
<path d="M1537.38 251.99L1527.46 261.976C1526.76 262.674 1525.64 262.674 1525.02 261.976L1513.21 250.174H1496.51C1495.53 250.174 1494.76 249.406 1494.76 248.428V234.043L1497.28 234.253L1499.93 234.462C1513.21 235.51 1525.78 241.096 1535.5 250.104C1536.06 250.663 1536.61 251.152 1537.17 251.711C1537.24 251.85 1537.31 251.92 1537.38 251.99Z" fill="#0C54A0"/>
<path d="M1510.76 187.256L1510.55 189.84L1510.34 192.493C1509.29 205.761 1503.77 218.261 1494.76 227.968C1494.2 228.527 1493.64 229.155 1493.08 229.714C1493.01 229.783 1492.94 229.853 1492.94 229.853L1483.02 219.937C1482.32 219.239 1482.32 218.122 1483.02 217.493L1494.83 205.691V189.002C1494.83 188.024 1495.6 187.256 1496.58 187.256H1510.76Z" fill="#0C54A0"/>
<path d="M1557.72 189.002V203.317C1557.72 203.317 1557.72 203.317 1557.65 203.317L1555.13 203.108L1552.34 202.898C1545.28 202.339 1538.5 200.524 1532.14 197.591C1526.55 195.007 1521.31 191.515 1516.77 187.256C1516.21 186.697 1515.65 186.208 1515.09 185.65C1515.02 185.58 1514.95 185.51 1514.95 185.51L1524.95 175.524C1525.64 174.826 1526.76 174.826 1527.39 175.524L1539.2 187.326H1555.9C1556.88 187.256 1557.72 188.024 1557.72 189.002Z" fill="#0C54A0"/>
</g>
<g opacity="0.5">
<path d="M1482.03 307.437L1470.22 319.239V335.929C1470.22 336.906 1469.45 337.674 1468.47 337.674H1454.08L1454.29 335.23L1454.5 332.437C1455.06 325.384 1456.87 318.61 1459.81 312.256C1462.39 306.599 1465.96 301.362 1470.22 296.823C1470.71 296.264 1471.27 295.775 1471.76 295.217C1471.83 295.147 1471.9 295.077 1471.97 294.937L1482.03 304.993C1482.66 305.622 1482.66 306.739 1482.03 307.437Z" fill="#0C54A0"/>
<path d="M1449.89 339.49L1439.96 349.476C1439.26 350.174 1438.15 350.174 1437.52 349.476L1425.71 337.674H1409.01C1408.03 337.674 1407.26 336.906 1407.26 335.929V321.543L1409.78 321.753L1412.43 321.962C1425.71 323.01 1438.29 328.596 1448 337.604C1448.56 338.163 1449.12 338.652 1449.68 339.211C1449.75 339.35 1449.82 339.42 1449.89 339.49Z" fill="#0C54A0"/>
<path d="M1423.26 274.756L1423.05 277.339L1422.84 279.993C1421.8 293.261 1416.28 305.761 1407.26 315.468C1406.7 316.026 1406.14 316.655 1405.59 317.213C1405.52 317.283 1405.45 317.353 1405.45 317.353L1395.52 307.437C1394.83 306.739 1394.83 305.621 1395.52 304.993L1407.33 293.191V276.501C1407.33 275.524 1408.1 274.756 1409.08 274.756H1423.26Z" fill="#0C54A0"/>
<path d="M1470.22 276.501V290.817C1470.22 290.817 1470.22 290.817 1470.15 290.817L1467.63 290.607L1464.84 290.398C1457.78 289.839 1451 288.024 1444.64 285.091C1439.05 282.507 1433.81 279.015 1429.27 274.755C1428.71 274.197 1428.15 273.708 1427.6 273.149C1427.53 273.079 1427.46 273.01 1427.46 273.01L1437.45 263.024C1438.15 262.325 1439.26 262.325 1439.89 263.024L1451.7 274.825H1468.4C1469.38 274.755 1470.22 275.524 1470.22 276.501Z" fill="#0C54A0"/>
</g>
<g opacity="0.5">
<path d="M1569.52 307.437L1557.72 319.239V335.929C1557.72 336.906 1556.95 337.675 1555.97 337.675H1541.58L1541.79 335.23L1541.99 332.437C1542.55 325.384 1544.37 318.61 1547.31 312.256C1549.89 306.599 1553.45 301.362 1557.72 296.823C1558.21 296.264 1558.76 295.775 1559.25 295.217C1559.32 295.147 1559.39 295.077 1559.46 294.937L1569.52 304.993C1570.15 305.622 1570.15 306.739 1569.52 307.437Z" fill="#0C54A0"/>
<path d="M1537.38 339.49L1527.46 349.476C1526.76 350.174 1525.64 350.174 1525.02 349.476L1513.21 337.674H1496.51C1495.53 337.674 1494.76 336.906 1494.76 335.929V321.543L1497.28 321.753L1499.93 321.962C1513.21 323.01 1525.78 328.596 1535.5 337.605C1536.06 338.163 1536.61 338.652 1537.17 339.211C1537.24 339.35 1537.31 339.42 1537.38 339.49Z" fill="#0C54A0"/>
<path d="M1510.76 274.756L1510.55 277.34L1510.34 279.993C1509.29 293.261 1503.77 305.761 1494.76 315.468C1494.2 316.027 1493.64 316.655 1493.08 317.214C1493.01 317.283 1492.94 317.353 1492.94 317.353L1483.02 307.437C1482.32 306.739 1482.32 305.622 1483.02 304.993L1494.83 293.191V276.502C1494.83 275.524 1495.6 274.756 1496.58 274.756H1510.76Z" fill="#0C54A0"/>
<path d="M1557.72 276.501V290.817C1557.72 290.817 1557.72 290.817 1557.65 290.817L1555.13 290.607L1552.34 290.398C1545.28 289.839 1538.5 288.024 1532.14 285.091C1526.55 282.507 1521.31 279.015 1516.77 274.756C1516.21 274.197 1515.65 273.708 1515.09 273.149C1515.02 273.08 1514.95 273.01 1514.95 273.01L1524.95 263.024C1525.64 262.325 1526.76 262.325 1527.39 263.024L1539.2 274.825H1555.9C1556.88 274.756 1557.72 275.524 1557.72 276.501Z" fill="#0C54A0"/>
</g>
<g opacity="0.5">
<path d="M1657.02 219.937L1645.21 231.739V248.429C1645.21 249.406 1644.45 250.174 1643.47 250.174H1629.07L1629.28 247.73L1629.49 244.937C1630.05 237.884 1631.87 231.11 1634.8 224.755C1637.39 219.099 1640.95 213.862 1645.21 209.323C1645.7 208.764 1646.26 208.275 1646.75 207.716C1646.82 207.647 1646.89 207.577 1646.96 207.437L1657.02 217.493C1657.65 218.121 1657.65 219.239 1657.02 219.937Z" fill="#0C54A0"/>
<path d="M1624.88 251.99L1614.96 261.976C1614.26 262.674 1613.14 262.674 1612.51 261.976L1600.71 250.174H1584.01C1583.03 250.174 1582.26 249.406 1582.26 248.428V234.043L1584.77 234.253L1587.43 234.462C1600.71 235.51 1613.28 241.096 1622.99 250.104C1623.55 250.663 1624.11 251.152 1624.67 251.711C1624.74 251.85 1624.81 251.92 1624.88 251.99Z" fill="#0C54A0"/>
<path d="M1598.26 187.256L1598.05 189.84L1597.84 192.493C1596.79 205.761 1591.27 218.261 1582.26 227.968C1581.7 228.527 1581.14 229.155 1580.58 229.714C1580.51 229.783 1580.44 229.853 1580.44 229.853L1570.52 219.937C1569.82 219.239 1569.82 218.122 1570.52 217.493L1582.33 205.691V189.002C1582.33 188.024 1583.1 187.256 1584.08 187.256H1598.26Z" fill="#0C54A0"/>
<path d="M1645.21 189.002V203.317C1645.21 203.317 1645.21 203.317 1645.14 203.317L1642.63 203.108L1639.83 202.898C1632.78 202.339 1626 200.524 1619.64 197.591C1614.05 195.007 1608.81 191.515 1604.27 187.256C1603.71 186.697 1603.15 186.208 1602.59 185.65C1602.52 185.58 1602.45 185.51 1602.45 185.51L1612.44 175.524C1613.14 174.826 1614.26 174.826 1614.89 175.524L1626.7 187.326H1643.4C1644.38 187.256 1645.21 188.024 1645.21 189.002Z" fill="#0C54A0"/>
</g>
<g opacity="0.5">
<path d="M1744.52 219.937L1732.71 231.739V248.429C1732.71 249.406 1731.94 250.175 1730.97 250.175H1716.57L1716.78 247.73L1716.99 244.937C1717.55 237.884 1719.37 231.11 1722.3 224.756C1724.89 219.099 1728.45 213.862 1732.71 209.323C1733.2 208.764 1733.76 208.275 1734.25 207.717C1734.32 207.647 1734.39 207.577 1734.46 207.437L1744.52 217.493C1745.15 218.122 1745.15 219.239 1744.52 219.937Z" fill="#0C54A0"/>
<path d="M1712.38 251.99L1702.46 261.976C1701.76 262.674 1700.64 262.674 1700.01 261.976L1688.2 250.174H1671.5C1670.53 250.174 1669.76 249.406 1669.76 248.429V234.043L1672.27 234.253L1674.93 234.462C1688.2 235.51 1700.78 241.096 1710.49 250.105C1711.05 250.663 1711.61 251.152 1712.17 251.711C1712.24 251.85 1712.31 251.92 1712.38 251.99Z" fill="#0C54A0"/>
<path d="M1685.76 187.256L1685.55 189.84L1685.34 192.493C1684.29 205.761 1678.77 218.261 1669.76 227.968C1669.2 228.526 1668.64 229.155 1668.08 229.714C1668.01 229.783 1667.94 229.853 1667.94 229.853L1658.02 219.937C1657.32 219.239 1657.32 218.121 1658.02 217.493L1669.83 205.691V189.002C1669.83 188.024 1670.6 187.256 1671.57 187.256H1685.76Z" fill="#0C54A0"/>
<path d="M1732.71 189.001V203.317C1732.71 203.317 1732.71 203.317 1732.64 203.317L1730.13 203.108L1727.33 202.898C1720.27 202.339 1713.5 200.524 1707.14 197.591C1701.55 195.007 1696.31 191.515 1691.77 187.256C1691.21 186.697 1690.65 186.208 1690.09 185.65C1690.02 185.58 1689.95 185.51 1689.95 185.51L1699.94 175.524C1700.64 174.826 1701.76 174.826 1702.39 175.524L1714.2 187.325H1730.9C1731.87 187.256 1732.71 188.024 1732.71 189.001Z" fill="#0C54A0"/>
</g>
<g opacity="0.5">
<path d="M1657.02 307.437L1645.21 319.239V335.929C1645.21 336.906 1644.45 337.675 1643.47 337.675H1629.07L1629.28 335.23L1629.49 332.437C1630.05 325.384 1631.87 318.61 1634.8 312.256C1637.39 306.599 1640.95 301.362 1645.21 296.823C1645.7 296.264 1646.26 295.775 1646.75 295.217C1646.82 295.147 1646.89 295.077 1646.96 294.937L1657.02 304.993C1657.65 305.622 1657.65 306.739 1657.02 307.437Z" fill="#0C54A0"/>
<path d="M1624.88 339.49L1614.96 349.476C1614.26 350.174 1613.14 350.174 1612.51 349.476L1600.71 337.674H1584.01C1583.03 337.674 1582.26 336.906 1582.26 335.929V321.543L1584.77 321.753L1587.43 321.962C1600.71 323.01 1613.28 328.596 1622.99 337.605C1623.55 338.163 1624.11 338.652 1624.67 339.211C1624.74 339.35 1624.81 339.42 1624.88 339.49Z" fill="#0C54A0"/>
<path d="M1598.26 274.756L1598.05 277.34L1597.84 279.993C1596.79 293.261 1591.27 305.761 1582.26 315.468C1581.7 316.026 1581.14 316.655 1580.58 317.214C1580.51 317.283 1580.44 317.353 1580.44 317.353L1570.52 307.437C1569.82 306.739 1569.82 305.621 1570.52 304.993L1582.33 293.191V276.502C1582.33 275.524 1583.1 274.756 1584.08 274.756H1598.26Z" fill="#0C54A0"/>
<path d="M1645.21 276.501V290.817C1645.21 290.817 1645.21 290.817 1645.14 290.817L1642.63 290.607L1639.83 290.398C1632.78 289.839 1626 288.024 1619.64 285.091C1614.05 282.507 1608.81 279.015 1604.27 274.756C1603.71 274.197 1603.15 273.708 1602.59 273.149C1602.52 273.08 1602.45 273.01 1602.45 273.01L1612.44 263.024C1613.14 262.326 1614.26 262.326 1614.89 263.024L1626.7 274.825H1643.4C1644.38 274.756 1645.21 275.524 1645.21 276.501Z" fill="#0C54A0"/>
</g>
<g opacity="0.5">
<path d="M1744.52 307.437L1732.71 319.239V335.929C1732.71 336.906 1731.94 337.675 1730.97 337.675H1716.57L1716.78 335.231L1716.99 332.437C1717.55 325.384 1719.37 318.61 1722.3 312.256C1724.89 306.599 1728.45 301.362 1732.71 296.823C1733.2 296.264 1733.76 295.775 1734.25 295.217C1734.32 295.147 1734.39 295.077 1734.46 294.937L1744.52 304.993C1745.15 305.622 1745.15 306.739 1744.52 307.437Z" fill="#0C54A0"/>
<path d="M1712.38 339.49L1702.46 349.476C1701.76 350.174 1700.64 350.174 1700.01 349.476L1688.2 337.675H1671.5C1670.53 337.675 1669.76 336.906 1669.76 335.929V321.543L1672.27 321.753L1674.93 321.962C1688.2 323.01 1700.78 328.596 1710.49 337.605C1711.05 338.163 1711.61 338.652 1712.17 339.211C1712.24 339.35 1712.31 339.42 1712.38 339.49Z" fill="#0C54A0"/>
<path d="M1685.76 274.756L1685.55 277.34L1685.34 279.993C1684.29 293.261 1678.77 305.761 1669.76 315.468C1669.2 316.026 1668.64 316.655 1668.08 317.214C1668.01 317.283 1667.94 317.353 1667.94 317.353L1658.02 307.437C1657.32 306.739 1657.32 305.622 1658.02 304.993L1669.83 293.191V276.502C1669.83 275.524 1670.6 274.756 1671.57 274.756H1685.76Z" fill="#0C54A0"/>
<path d="M1732.71 276.501V290.817C1732.71 290.817 1732.71 290.817 1732.64 290.817L1730.13 290.608L1727.33 290.398C1720.27 289.839 1713.5 288.024 1707.14 285.091C1701.55 282.507 1696.31 279.015 1691.77 274.756C1691.21 274.197 1690.65 273.708 1690.09 273.15C1690.02 273.08 1689.95 273.01 1689.95 273.01L1699.94 263.024C1700.64 262.326 1701.76 262.326 1702.39 263.024L1714.2 274.825H1730.9C1731.87 274.756 1732.71 275.524 1732.71 276.501Z" fill="#0C54A0"/>
</g>
<g opacity="0.5">
<path d="M1832.02 219.937L1820.21 231.739V248.429C1820.21 249.406 1819.44 250.174 1818.46 250.174H1804.07L1804.28 247.73L1804.49 244.937C1805.05 237.884 1806.86 231.11 1809.8 224.755C1812.38 219.099 1815.95 213.862 1820.21 209.323C1820.7 208.764 1821.26 208.275 1821.75 207.716C1821.82 207.647 1821.89 207.577 1821.96 207.437L1832.02 217.493C1832.65 218.121 1832.65 219.239 1832.02 219.937Z" fill="#0C54A0"/>
<path d="M1799.88 251.99L1789.96 261.976C1789.26 262.674 1788.14 262.674 1787.51 261.976L1775.7 250.174H1759C1758.02 250.174 1757.26 249.406 1757.26 248.428V234.043L1759.77 234.253L1762.43 234.462C1775.7 235.51 1788.28 241.096 1797.99 250.104C1798.55 250.663 1799.11 251.152 1799.67 251.711C1799.74 251.85 1799.81 251.92 1799.88 251.99Z" fill="#0C54A0"/>
<path d="M1773.26 187.256L1773.05 189.84L1772.84 192.493C1771.79 205.761 1766.27 218.261 1757.26 227.968C1756.7 228.527 1756.14 229.155 1755.58 229.714C1755.51 229.783 1755.44 229.853 1755.44 229.853L1745.52 219.937C1744.82 219.239 1744.82 218.122 1745.52 217.493L1757.33 205.691V189.002C1757.33 188.024 1758.09 187.256 1759.07 187.256H1773.26Z" fill="#0C54A0"/>
<path d="M1820.21 189.002V203.317C1820.21 203.317 1820.21 203.317 1820.14 203.317L1817.63 203.108L1814.83 202.898C1807.77 202.339 1801 200.524 1794.64 197.591C1789.05 195.007 1783.81 191.515 1779.26 187.256C1778.71 186.697 1778.15 186.208 1777.59 185.65C1777.52 185.58 1777.45 185.51 1777.45 185.51L1787.44 175.524C1788.14 174.826 1789.26 174.826 1789.89 175.524L1801.69 187.326H1818.39C1819.37 187.256 1820.21 188.024 1820.21 189.002Z" fill="#0C54A0"/>
</g>
<g opacity="0.5">
<path d="M1919.52 219.937L1907.71 231.739V248.429C1907.71 249.406 1906.94 250.175 1905.96 250.175H1891.57L1891.78 247.73L1891.99 244.937C1892.55 237.884 1894.36 231.11 1897.3 224.756C1899.88 219.099 1903.45 213.862 1907.71 209.323C1908.2 208.764 1908.76 208.275 1909.25 207.717C1909.32 207.647 1909.39 207.577 1909.46 207.437L1919.52 217.493C1920.15 218.122 1920.15 219.239 1919.52 219.937Z" fill="#0C54A0"/>
<path d="M1887.38 251.99L1877.45 261.976C1876.76 262.674 1875.64 262.674 1875.01 261.976L1863.2 250.174H1846.5C1845.52 250.174 1844.75 249.406 1844.75 248.429V234.043L1847.27 234.253L1849.92 234.462C1863.2 235.51 1875.78 241.096 1885.49 250.105C1886.05 250.663 1886.61 251.152 1887.17 251.711C1887.24 251.85 1887.31 251.92 1887.38 251.99Z" fill="#0C54A0"/>
<path d="M1860.75 187.256L1860.54 189.84L1860.34 192.493C1859.29 205.761 1853.77 218.261 1844.75 227.968C1844.19 228.526 1843.64 229.155 1843.08 229.714C1843.01 229.783 1842.94 229.853 1842.94 229.853L1833.02 219.937C1832.32 219.239 1832.32 218.121 1833.02 217.493L1844.82 205.691V189.002C1844.82 188.024 1845.59 187.256 1846.57 187.256H1860.75Z" fill="#0C54A0"/>
<path d="M1907.71 189.001V203.317C1907.71 203.317 1907.71 203.317 1907.64 203.317L1905.12 203.108L1902.33 202.898C1895.27 202.339 1888.49 200.524 1882.14 197.591C1876.55 195.007 1871.31 191.515 1866.76 187.256C1866.2 186.697 1865.65 186.208 1865.09 185.65C1865.02 185.58 1864.95 185.51 1864.95 185.51L1874.94 175.524C1875.64 174.826 1876.76 174.826 1877.38 175.524L1889.19 187.325H1905.89C1906.87 187.256 1907.71 188.024 1907.71 189.001Z" fill="#0C54A0"/>
</g>
<g opacity="0.5">
<path d="M1832.02 307.437L1820.21 319.239V335.929C1820.21 336.906 1819.44 337.675 1818.46 337.675H1804.07L1804.28 335.23L1804.49 332.437C1805.05 325.384 1806.87 318.61 1809.8 312.256C1812.39 306.599 1815.95 301.362 1820.21 296.823C1820.7 296.264 1821.26 295.775 1821.75 295.217C1821.82 295.147 1821.89 295.077 1821.96 294.937L1832.02 304.993C1832.65 305.622 1832.65 306.739 1832.02 307.437Z" fill="#0C54A0"/>
<path d="M1799.88 339.49L1789.96 349.476C1789.26 350.174 1788.14 350.174 1787.51 349.476L1775.7 337.674H1759C1758.02 337.674 1757.26 336.906 1757.26 335.929V321.543L1759.77 321.753L1762.43 321.962C1775.7 323.01 1788.28 328.596 1797.99 337.605C1798.55 338.163 1799.11 338.652 1799.67 339.211C1799.74 339.35 1799.81 339.42 1799.88 339.49Z" fill="#0C54A0"/>
<path d="M1773.26 274.756L1773.05 277.34L1772.84 279.993C1771.79 293.261 1766.27 305.761 1757.26 315.468C1756.7 316.026 1756.14 316.655 1755.58 317.214C1755.51 317.283 1755.44 317.353 1755.44 317.353L1745.52 307.437C1744.82 306.739 1744.82 305.621 1745.52 304.993L1757.33 293.191V276.502C1757.33 275.524 1758.09 274.756 1759.07 274.756H1773.26Z" fill="#0C54A0"/>
<path d="M1820.21 276.501V290.817C1820.21 290.817 1820.21 290.817 1820.14 290.817L1817.63 290.607L1814.83 290.398C1807.77 289.839 1801 288.024 1794.64 285.091C1789.05 282.507 1783.81 279.015 1779.27 274.756C1778.71 274.197 1778.15 273.708 1777.59 273.149C1777.52 273.08 1777.45 273.01 1777.45 273.01L1787.44 263.024C1788.14 262.326 1789.26 262.326 1789.89 263.024L1801.69 274.825H1818.39C1819.37 274.756 1820.21 275.524 1820.21 276.501Z" fill="#0C54A0"/>
</g>
<g opacity="0.5">
<path d="M1919.52 307.437L1907.71 319.239V335.929C1907.71 336.907 1906.94 337.675 1905.96 337.675H1891.57L1891.78 335.231L1891.99 332.437C1892.55 325.384 1894.36 318.611 1897.3 312.256C1899.88 306.599 1903.45 301.362 1907.71 296.823C1908.2 296.264 1908.76 295.775 1909.25 295.217C1909.32 295.147 1909.39 295.077 1909.46 294.937L1919.52 304.993C1920.15 305.622 1920.15 306.739 1919.52 307.437Z" fill="#0C54A0"/>
<path d="M1887.38 339.49L1877.45 349.476C1876.76 350.174 1875.64 350.174 1875.01 349.476L1863.2 337.675H1846.5C1845.52 337.675 1844.75 336.906 1844.75 335.929V321.543L1847.27 321.753L1849.92 321.962C1863.2 323.01 1875.78 328.596 1885.49 337.605C1886.05 338.163 1886.61 338.652 1887.17 339.211C1887.24 339.35 1887.31 339.42 1887.38 339.49Z" fill="#0C54A0"/>
<path d="M1860.75 274.756L1860.54 277.34L1860.34 279.993C1859.29 293.261 1853.77 305.761 1844.75 315.468C1844.19 316.027 1843.64 316.655 1843.08 317.214C1843.01 317.284 1842.94 317.353 1842.94 317.353L1833.01 307.437C1832.32 306.739 1832.32 305.622 1833.01 304.993L1844.82 293.192V276.502C1844.82 275.524 1845.59 274.756 1846.57 274.756H1860.75Z" fill="#0C54A0"/>
<path d="M1907.71 276.501V290.817C1907.71 290.817 1907.71 290.817 1907.64 290.817L1905.12 290.608L1902.33 290.398C1895.27 289.839 1888.49 288.024 1882.14 285.091C1876.55 282.507 1871.31 279.015 1866.76 274.756C1866.2 274.197 1865.65 273.708 1865.09 273.15C1865.02 273.08 1864.95 273.01 1864.95 273.01L1874.94 263.024C1875.64 262.326 1876.76 262.326 1877.38 263.024L1889.19 274.826H1905.89C1906.87 274.756 1907.71 275.524 1907.71 276.501Z" fill="#0C54A0"/>
</g>
<rect x="1395" width="388" height="350" fill="url(#paint0_linear_19_610)"/>
<defs>
<linearGradient id="paint0_linear_19_610" x1="1395" y1="175" x2="1783" y2="175" gradientUnits="userSpaceOnUse">
<stop stop-color="#ECECEC"/>
<stop offset="0.58" stop-color="#ECECEC" stop-opacity="0.515"/>
<stop offset="1" stop-color="#ECECEC" stop-opacity="0"/>
</linearGradient>
</defs>
</svg>
