<svg width="32" height="32" viewBox="0 0 32 32" fill="none" xmlns="http://www.w3.org/2000/svg">
<path d="M31.8083 16.4342L27.4922 20.7503V26.854C27.4922 27.2116 27.2113 27.4925 26.8537 27.4925H21.5928L21.6694 26.5986L21.746 25.5771C21.9503 22.9977 22.6143 20.5204 23.6869 18.1964C24.6319 16.1278 25.9344 14.2124 27.4922 12.5523C27.671 12.348 27.8753 12.1693 28.0541 11.9649C28.0796 11.9394 28.1051 11.9139 28.1307 11.8628L31.8083 15.5404C32.0381 15.7702 32.0381 16.1788 31.8083 16.4342Z" fill="#0C54A0"/>
<path d="M20.0605 28.1562L16.4341 31.8083C16.1787 32.0636 15.77 32.0636 15.5402 31.8083L11.2242 27.4922H5.1204C4.76286 27.4922 4.48193 27.2113 4.48193 26.8537V21.5928L5.40133 21.6694L6.3718 21.746C11.2242 22.1291 15.8211 24.1722 19.371 27.4667C19.5753 27.671 19.7796 27.8498 19.9839 28.0541C20.0095 28.1051 20.035 28.1307 20.0605 28.1562Z" fill="#0C54A0"/>
<path d="M10.3304 4.48193L10.2538 5.42686L10.1772 6.39734C9.7941 11.2497 7.77654 15.8211 4.48204 19.371C4.27773 19.5753 4.07343 19.8052 3.86912 20.0095C3.84358 20.035 3.81804 20.0605 3.81804 20.0605L0.19154 16.434C-0.0638468 16.1787 -0.0638468 15.77 0.19154 15.5402L4.50758 11.2242V5.1204C4.50758 4.76286 4.78851 4.48193 5.14605 4.48193H10.3304Z" fill="#0C54A0"/>
<path d="M27.4925 5.12051V10.3559C27.4925 10.3559 27.4925 10.3559 27.4669 10.3559L26.5475 10.2793L25.526 10.2027C22.9466 9.9984 20.4693 9.33439 18.1453 8.26177C16.1022 7.31684 14.1868 6.0399 12.5268 4.48204C12.3225 4.27773 12.1182 4.09896 11.9139 3.89465C11.8883 3.86911 11.8628 3.84358 11.8628 3.84358L15.5148 0.19154C15.7702 -0.0638468 16.1788 -0.0638468 16.4087 0.19154L20.7247 4.50758H26.8285C27.186 4.48204 27.4925 4.76297 27.4925 5.12051Z" fill="#0C54A0"/>
</svg>
