<svg width="288" height="100" viewBox="0 0 288 100" fill="none" xmlns="http://www.w3.org/2000/svg">
<rect width="288" height="100" fill="white"/>
<path fill-rule="evenodd" clip-rule="evenodd" d="M87.1111 50V66.8889L118.095 46.941V30.052L87.1111 50Z" fill="#358DCC"/>
<path fill-rule="evenodd" clip-rule="evenodd" d="M87.1111 73.0066V89.8955L118.095 69.948V53.0586L87.1111 73.0066Z" fill="#D1D2D4"/>
<path fill-rule="evenodd" clip-rule="evenodd" d="M56.1273 53.0586V69.948L87.1111 50V33.1111L56.1273 53.0586Z" fill="#D1D2D4"/>
<path fill-rule="evenodd" clip-rule="evenodd" d="M56.1273 30.052V46.941L87.1111 26.9934V10.1045L56.1273 30.052Z" fill="#358DCC"/>
<path fill-rule="evenodd" clip-rule="evenodd" d="M87.1111 73.0066V89.8955L56.1273 69.948V53.0586L87.1111 73.0066Z" fill="#929498"/>
<path fill-rule="evenodd" clip-rule="evenodd" d="M87.1111 50V66.8889L56.1273 46.941V30.052L87.1111 50Z" fill="#1C68A4"/>
<path d="M124.38 30.0522H128.362V36.8786H128.434L134.43 30.0522H139.502L132.273 37.7794L139.929 46.8339H134.643L128.409 39.1068H128.362V46.8339H124.38V30.0522Z" fill="#181716"/>
<path d="M139.191 38.3719C139.191 32.9917 143.079 29.6023 148.316 29.6023C153.579 29.6023 157.465 32.9917 157.465 38.3719C157.465 43.6812 153.579 47.284 148.316 47.284C143.079 47.284 139.191 43.6812 139.191 38.3719ZM153.128 38.3719C153.128 35.4332 151.161 33.2522 148.316 33.2522C145.472 33.2522 143.529 35.4332 143.529 38.3719C143.529 41.4058 145.496 43.5868 148.316 43.5868C151.137 43.5868 153.128 41.4058 153.128 38.3719Z" fill="#181716"/>
<path d="M159.86 30.0522H163.914V36.4049H170.456V30.0522H174.508V46.8339H170.456V39.8181H163.914V46.8339H159.86L159.86 30.0522Z" fill="#181716"/>
<path d="M176.892 38.42C176.892 33.0389 180.874 29.6023 185.994 29.6023C188.34 29.6023 190.877 30.456 192.275 32.0673L189.526 34.8172C188.699 33.8015 187.445 33.2314 186.136 33.2767C183.316 33.2767 181.3 35.4568 181.3 38.42C181.3 41.4775 183.268 43.5632 186.064 43.5632C187.457 43.6064 188.783 42.9698 189.62 41.8566L192.441 44.5113C190.971 46.2179 188.744 47.284 185.923 47.284C180.755 47.284 176.892 43.6812 176.892 38.42Z" fill="#181716"/>
<path d="M192.797 38.3719C192.797 32.9917 196.685 29.6023 201.923 29.6023C207.185 29.6023 211.071 32.9917 211.071 38.3719C211.071 43.6812 207.185 47.284 201.923 47.284C196.685 47.284 192.797 43.6812 192.797 38.3719ZM206.734 38.3719C206.734 35.4332 204.767 33.2522 201.923 33.2522C199.078 33.2522 197.135 35.4332 197.135 38.3719C197.135 41.4058 199.102 43.5868 201.923 43.5868C204.743 43.5868 206.734 41.4058 206.734 38.3719Z" fill="#181716"/>
<path d="M213.468 30.0522H219.228L223.044 40.8133H223.138L226.788 30.0522H232.643V46.8339H228.684L228.78 34.9587H228.709L224.347 46.8339H221.503L217.26 34.9587H217.189L217.284 46.8339H213.468V30.0522Z" fill="#181716"/>
<path d="M156.895 53.1186H167.491V56.5951H160.967V69.9767H156.895V53.1186Z" fill="#181716"/>
<path d="M169.129 53.1186H175.319C179.01 53.1186 181.915 54.452 181.915 58.3095C181.915 62.2145 178.748 63.6193 175.224 63.6193H173.2V69.9767H169.129V53.1186ZM174.914 60.381C176.438 60.381 177.843 59.9287 177.843 58.3333C177.843 56.7141 176.438 56.4044 174.986 56.4044H173.2V60.381L174.914 60.381Z" fill="#181716"/>
<path d="M183.555 69.9766L184.055 66.6194C184.55 66.7701 185.062 66.8581 185.579 66.8812C187.079 66.8812 187.579 66.0242 188.269 64.6431L188.341 64.5003L181.912 53.1185H186.602L190.555 60.8096L194.27 53.1185H198.841L192.532 65.1193C190.984 68.0717 189.722 70.2625 186.245 70.2625C185.34 70.2847 184.435 70.1886 183.555 69.9766Z" fill="#181716"/>
<path d="M200.266 53.1185H214.885V69.9766H210.814V56.5712H204.337V69.9766H200.266V53.1185Z" fill="#181716"/>
<path d="M218.023 53.1185H232.643V69.9766H228.571V56.5712H222.095V69.9766H218.023V53.1185Z" fill="#181716"/>
<rect width="288" height="100" fill="#565656" style="mix-blend-mode:color"/>
</svg>
