<svg width="288" height="100" viewBox="0 0 288 100" fill="none" xmlns="http://www.w3.org/2000/svg">
<rect width="288" height="100" fill="white"/>
<path d="M113.866 17.5621H64.1342C59.9522 17.5621 56.5621 20.9523 56.5621 25.1343V74.8657C56.5621 79.0477 59.9522 82.4379 64.1342 82.4379H113.866C118.048 82.4379 121.438 79.0477 121.438 74.8657V25.1343C121.438 20.9523 118.048 17.5621 113.866 17.5621Z" fill="#181716"/>
<path d="M113.866 17.5621C118.048 17.5621 121.438 20.9522 121.438 25.1343V74.8657C121.438 79.0478 118.048 82.4379 113.866 82.4379H64.1343C59.9522 82.4379 56.5621 79.0478 56.5621 74.8657V25.1343C56.5621 20.9522 59.9522 17.5621 64.1343 17.5621H113.866ZM113.866 15H64.1343C58.5462 15 54 19.5462 54 25.1343V74.8657C54 80.4537 58.5462 85 64.1343 85H113.866C119.454 85 124 80.4537 124 74.8657V25.1343C124 19.5462 119.454 15 113.866 15Z" fill="url(#paint0_linear_7_129)"/>
<path d="M74.8482 35.8951H103.152V73.5174H93.5797V45.3077H74.8482V73.5174" stroke="white" stroke-width="3.42765" stroke-miterlimit="10" stroke-linecap="square"/>
<path d="M89 54.7203H84.2139V73.5175" stroke="white" stroke-width="3.42765" stroke-miterlimit="10" stroke-linecap="square"/>
<path d="M65.4825 73.5174V26.4826H103.152" stroke="white" stroke-width="3.42765" stroke-miterlimit="10" stroke-linecap="square"/>
<path d="M112.517 73.5174V26.4826" stroke="white" stroke-width="3.42765" stroke-miterlimit="10" stroke-linecap="square"/>
<path d="M153.37 46.5971H152.284V34.6637H145.011V46.5971H143.926V33.7456H153.37V46.5971Z" fill="#181716"/>
<path d="M163.686 42.9872H157.852L156.528 46.5971H155.39L160.253 33.7456H161.285L166.149 46.5971H165.019L163.686 42.9872ZM158.188 42.0691H163.342L160.765 35.0697L158.188 42.0691Z" fill="#181716"/>
<path d="M169.228 41.363V46.5971H168.143V33.7456H172.521C173.857 33.7456 174.912 34.087 175.685 34.7695C176.459 35.4522 176.846 36.3907 176.846 37.5851C176.846 38.7916 176.474 39.7228 175.729 40.3789C174.985 41.0351 173.907 41.363 172.495 41.363H169.228ZM169.228 40.4451H172.521C173.574 40.4451 174.378 40.1945 174.93 39.6936C175.484 39.1927 175.76 38.4943 175.76 37.5985C175.76 36.7086 175.485 36 174.935 35.4725C174.385 34.9451 173.603 34.6755 172.592 34.6637H169.228L169.228 40.4451Z" fill="#181716"/>
<path d="M185.182 42.9872H179.348L178.024 46.5971H176.886L181.749 33.7456H182.782L187.645 46.5971H186.515L185.182 42.9872ZM179.684 42.0691H184.838L182.261 35.0697L179.684 42.0691Z" fill="#181716"/>
<path d="M199.673 45.6792H201.041L201.032 49.713H199.947V46.5971H190.255V49.713H189.169V45.6792H190.026C190.679 44.9967 191.207 44.0007 191.61 42.6913C192.013 41.3822 192.256 39.9478 192.338 38.3884L192.568 33.7456H199.673L199.673 45.6792ZM191.288 45.6792H198.587V34.6637H193.609L193.433 38.3472C193.356 39.8785 193.131 41.2889 192.757 42.5786C192.384 43.8684 191.894 44.9018 191.288 45.6792Z" fill="#181716"/>
<path d="M212.498 40.8686C212.498 42.0515 212.293 43.0901 211.884 43.9844C211.475 44.879 210.891 45.5675 210.132 46.0498C209.373 46.5325 208.496 46.7736 207.502 46.7736C206.001 46.7736 204.789 46.2367 203.865 45.1628C202.941 44.089 202.479 42.6399 202.479 40.8157V39.4918C202.479 38.3209 202.687 37.2836 203.102 36.3803C203.517 35.4772 204.103 34.7828 204.863 34.2972C205.621 33.8118 206.496 33.5691 207.484 33.5691C208.473 33.5691 209.345 33.8074 210.101 34.2841C210.857 34.7607 211.441 35.4345 211.853 36.3053C212.265 37.1763 212.48 38.1853 212.498 39.3328L212.498 40.8686ZM211.412 39.4741C211.412 37.9266 211.062 36.7145 210.361 35.8376C209.661 34.9608 208.702 34.5224 207.484 34.5224C206.289 34.5224 205.337 34.9624 204.629 35.842C203.919 36.7218 203.565 37.9501 203.565 39.527V40.8686C203.565 42.3928 203.918 43.6005 204.624 44.4919C205.33 45.3834 206.289 45.8292 207.502 45.8292C208.731 45.8292 209.691 45.3894 210.379 44.5096C211.068 43.63 211.412 42.4045 211.412 40.8334V39.4741Z" fill="#181716"/>
<path d="M218.011 40.5597H216.246V46.5971H215.16V33.7456H216.246V39.6418H217.958L222.928 33.7456H224.296L219.018 40.0615L224.684 46.5971H223.334L218.011 40.5597Z" fill="#181716"/>
<path d="M234.888 42.5899C234.741 43.9434 234.257 44.979 233.436 45.6967C232.615 46.4148 231.522 46.7736 230.157 46.7736C229.204 46.7736 228.361 46.5353 227.628 46.0588C226.896 45.5821 226.329 44.9069 225.929 44.033C225.529 43.1592 225.326 42.1605 225.32 41.0363V39.3682C225.32 38.2266 225.52 37.2145 225.921 36.3318C226.321 35.4491 226.896 34.768 227.646 34.2885C228.396 33.8089 229.26 33.5691 230.237 33.5691C231.614 33.5691 232.701 33.9397 233.498 34.6812C234.295 35.4226 234.759 36.4497 234.888 37.7618H233.794C233.523 35.5787 232.337 34.487 230.237 34.487C229.072 34.487 228.143 34.9228 227.452 35.7945C226.76 36.6661 226.415 37.8704 226.415 39.4073V40.9798C226.415 42.4636 226.752 43.6474 227.425 44.5308C228.099 45.4141 229.01 45.8557 230.157 45.8557C231.293 45.8557 232.149 45.5836 232.726 45.0392C233.302 44.495 233.659 43.6786 233.794 42.5899H234.888Z" fill="#181716"/>
<path d="M150.069 61.3021C150.069 60.8021 149.892 60.4181 149.539 60.1502C149.186 59.8827 148.551 59.6002 147.633 59.3029C146.715 59.0058 145.988 58.7131 145.453 58.4248C143.993 57.6362 143.264 56.5742 143.264 55.2383C143.264 54.544 143.459 53.9246 143.851 53.3802C144.242 52.8361 144.804 52.4109 145.536 52.1048C146.269 51.799 147.091 51.6459 148.004 51.6459C148.921 51.6459 149.739 51.8121 150.457 52.1446C151.175 52.4771 151.733 52.9465 152.13 53.5523C152.527 54.1586 152.726 54.8471 152.726 55.6179H150.078C150.078 55.0296 149.892 54.5719 149.522 54.2452C149.151 53.9188 148.63 53.7554 147.959 53.7554C147.312 53.7554 146.809 53.8923 146.45 54.1659C146.091 54.4394 145.912 54.8 145.912 55.2471C145.912 55.665 146.122 56.015 146.543 56.2975C146.963 56.58 147.583 56.8448 148.401 57.0919C149.907 57.545 151.004 58.1069 151.693 58.7777C152.381 59.4485 152.726 60.2841 152.726 61.2846C152.726 62.3966 152.305 63.2691 151.464 63.9016C150.622 64.5341 149.489 64.8504 148.065 64.8504C147.077 64.8504 146.177 64.6695 145.364 64.3077C144.552 63.9458 143.933 63.45 143.506 62.8204C143.08 62.1908 142.867 61.461 142.867 60.6314H145.523C145.523 62.0495 146.371 62.7585 148.065 62.7585C148.695 62.7585 149.186 62.6306 149.539 62.3746C149.892 62.1187 150.069 61.7612 150.069 61.3021Z" fill="#181716"/>
<path d="M164.89 58.5394C164.89 59.8048 164.666 60.9137 164.219 61.8671C163.771 62.8204 163.132 63.556 162.299 64.0737C161.466 64.5916 160.512 64.8504 159.435 64.8504C158.37 64.8504 157.419 64.5945 156.584 64.0825C155.748 63.5706 155.101 62.8395 154.642 61.8891C154.183 60.9389 153.951 59.8458 153.945 58.61V57.9746C153.945 56.7094 154.172 55.5958 154.629 54.6338C155.085 53.6715 155.729 52.9331 156.562 52.4182C157.394 51.9034 158.346 51.6459 159.417 51.6459C160.488 51.6459 161.44 51.9034 162.272 52.4182C163.105 52.9331 163.749 53.6715 164.206 54.6338C164.662 55.5958 164.89 56.7065 164.89 57.9656L164.89 58.5394ZM162.206 57.9569C162.206 56.6094 161.965 55.5856 161.483 54.8852C161 54.185 160.311 53.8348 159.417 53.8348C158.528 53.8348 157.843 54.1806 157.361 54.8719C156.878 55.5635 156.634 56.5771 156.628 57.9127V58.5394C156.628 59.8517 156.869 60.8696 157.352 61.5935C157.834 62.3173 158.528 62.6791 159.435 62.6791C160.323 62.6791 161.006 62.3304 161.483 61.6331C161.959 60.9358 162.2 59.9194 162.206 58.5835V57.9569Z" fill="#181716"/>
<path d="M174.448 59.4221H169.364V64.6739H166.716V51.8223H175.084V53.9673H169.364V57.286H174.448V59.4221Z" fill="#181716"/>
<path d="M181.166 59.9693H179.056V64.6739H176.408V51.8223H181.183C182.702 51.8223 183.872 52.1608 184.697 52.8375C185.52 53.5142 185.932 54.4704 185.932 55.706C185.932 56.5829 185.742 57.3141 185.363 57.8996C184.983 58.4852 184.408 58.9514 183.637 59.2985L186.417 64.5503V64.6739H183.575L181.166 59.9693ZM179.056 57.8246H181.192C181.857 57.8246 182.372 57.6554 182.737 57.3169C183.102 56.9787 183.284 56.5123 183.284 55.9179C183.284 55.3119 183.112 54.8352 182.768 54.4879C182.423 54.1408 181.895 53.9673 181.183 53.9673H179.056V57.8246Z" fill="#181716"/>
<path d="M197.578 60.9666L199.308 51.8223H201.947L199.096 64.6739H196.431L194.338 56.0769L192.246 64.6739H189.581L186.73 51.8223H189.369L191.108 60.9491L193.226 51.8223H195.468L197.578 60.9666Z" fill="#181716"/>
<path d="M209.703 62.026H205.06L204.178 64.6739H201.362L206.146 51.8223H208.6L213.41 64.6739H210.595L209.703 62.026ZM205.775 59.881H208.988L207.373 55.0706L205.775 59.881Z" fill="#181716"/>
<path d="M219.328 59.9693H217.219V64.6739H214.571V51.8223H219.346C220.864 51.8223 222.035 52.1608 222.859 52.8375C223.683 53.5142 224.095 54.4704 224.095 55.706C224.095 56.5829 223.905 57.3141 223.526 57.8996C223.146 58.4852 222.571 58.9514 221.8 59.2985L224.58 64.5503V64.6739H221.738L219.328 59.9693ZM217.219 57.8246H219.355C220.02 57.8246 220.535 57.6554 220.9 57.3169C221.264 56.9787 221.447 56.5123 221.447 55.9179C221.447 55.3119 221.275 54.8352 220.93 54.4879C220.586 54.1408 220.058 53.9673 219.346 53.9673H217.219V57.8246Z" fill="#181716"/>
<path d="M233.728 59.1044H228.643V62.5466H234.61V64.6739H225.996V51.8223H234.593V53.9673H228.643V57.03H233.728V59.1044Z" fill="#181716"/>
<rect width="288" height="100" fill="#565656" style="mix-blend-mode:color"/>
<defs>
<linearGradient id="paint0_linear_7_129" x1="54" y1="50" x2="124" y2="50" gradientUnits="userSpaceOnUse">
<stop stop-color="#16B6FF"/>
<stop offset="0.99918" stop-color="#01FF7D"/>
</linearGradient>
</defs>
</svg>
