<svg width="288" height="100" viewBox="0 0 288 100" fill="none" xmlns="http://www.w3.org/2000/svg">
<rect width="288" height="100" fill="white"/>
<path d="M224.611 42.2323C224.611 50.8259 229.93 54.2861 237.286 54.2861H245.51V64.6096H252.313V33.7058H245.51V47.6124H237.846C233.395 47.6124 231.419 44.9533 231.419 41.7396V33.7058H224.617V42.2323H224.611ZM195.437 49.0963C195.437 43.839 199.272 39.825 204.77 39.825C210.396 39.825 213.979 44.1526 213.979 49.0963C213.979 54.2243 210.206 58.4904 204.77 58.4904C199.575 58.4904 195.437 54.5996 195.437 49.0963ZM188.327 49.0963C188.327 58.1209 195.253 65.1696 204.216 65.1696C207.989 65.1696 211.757 64.0555 213.985 60.5957V64.6154H220.787V49.0963C220.787 40.3177 214.73 33.1459 204.837 33.1459C195.124 33.1459 188.327 40.3177 188.327 49.0963ZM138.629 64.6096H145.431V40.3792H157.916V64.6096H164.718V40.3792H170.776C175.227 40.3792 177.203 43.0385 177.203 46.252V64.6096H184.005V45.7593C184.005 37.1657 178.686 33.7058 171.33 33.7058H138.629V64.6096ZM100.671 49.0963C100.671 58.1209 107.596 65.1696 116.559 65.1696C120.333 65.1696 124.101 64.0555 126.329 60.5957V64.6154H133.131V49.0963C133.131 40.3177 127.073 33.1459 117.181 33.1459C107.473 33.1459 100.671 40.3177 100.671 49.0963ZM126.323 49.0963C126.323 54.2243 122.55 58.4904 117.114 58.4904C111.924 58.4904 107.781 54.5938 107.781 49.0963C107.781 43.839 111.616 39.825 117.114 39.825C122.74 39.825 126.323 44.1526 126.323 49.0963Z" fill="black"/>
<path d="M74.3293 75.2022H46.7004C40.4636 75.2022 35.4138 70.1466 35.4138 63.9155V36.2867C35.4138 30.0498 40.4694 25 46.7004 25H74.3293C80.5659 25 85.6159 30.0556 85.6159 36.2867V63.9155C85.6159 70.1521 80.5659 75.2022 74.3293 75.2022Z" fill="url(#paint0_radial_7_164)"/>
<path d="M60.7978 33.1459C51.09 33.1459 44.2932 40.3174 44.2932 49.096C44.2932 58.1209 51.2187 65.1693 60.1819 65.1693C62.8639 65.1693 65.5455 64.5983 67.6673 63.0307V55.3998C66.0324 57.2923 63.6194 58.4904 60.7363 58.4904C55.5463 58.4904 51.4033 54.5938 51.4033 49.096C51.4033 43.839 55.2385 39.8248 60.7363 39.8248C66.2341 39.8248 69.778 43.9567 69.9403 48.7601H69.9458V64.6152H76.7481V49.096C76.7424 40.3174 70.6849 33.1459 60.7978 33.1459Z" fill="white"/>
<rect width="288" height="100" fill="#565656" style="mix-blend-mode:color"/>
<defs>
<radialGradient id="paint0_radial_7_164" cx="0" cy="0" r="1" gradientUnits="userSpaceOnUse" gradientTransform="translate(143.875 56.2648) scale(129.484 37.3272)">
<stop stop-color="#23C7FA"/>
<stop offset="0.3426" stop-color="#23C4F9"/>
<stop offset="0.6011" stop-color="#22BAF7"/>
<stop offset="0.8313" stop-color="#20AAF2"/>
<stop offset="1" stop-color="#1F99EE"/>
</radialGradient>
</defs>
</svg>
