<svg width="67" height="47" viewBox="0 0 67 47" fill="none" xmlns="http://www.w3.org/2000/svg">
<path d="M1.104 4.94287H42.8965V32.1523C42.8965 32.5793 42.7269 32.9889 42.4249 33.2908C42.123 33.5928 41.7134 33.7624 41.2864 33.7624H2.71697C2.28918 33.7624 1.87892 33.5925 1.57643 33.29C1.27394 32.9875 1.104 32.5772 1.104 32.1494V4.94287Z" stroke="#0C54A0" stroke-width="1.28" stroke-linecap="round" stroke-linejoin="round"/>
<path d="M2.57533 1.2373H41.4252C41.8154 1.2373 42.1896 1.39232 42.4655 1.66825C42.7415 1.94417 42.8965 2.31841 42.8965 2.70863V4.94308H1.104V2.70863C1.104 2.31841 1.25902 1.94417 1.53494 1.66825C1.81087 1.39232 2.18511 1.2373 2.57533 1.2373Z" stroke="#0C54A0" stroke-width="1.28" stroke-linecap="round" stroke-linejoin="round"/>
<path d="M10.8239 18.9248H14.826C15.033 18.9248 15.2315 19.007 15.3779 19.1534C15.5242 19.2998 15.6064 19.4983 15.6064 19.7053V25.4489H10.0435V19.7038C10.0438 19.4971 10.1262 19.2989 10.2726 19.1529C10.4189 19.0068 10.6172 18.9248 10.8239 18.9248Z" stroke="#0C54A0" stroke-width="1.28" stroke-linecap="round" stroke-linejoin="round"/>
<path d="M19.9655 16.2957H23.9676C24.0701 16.2957 24.1716 16.3158 24.2662 16.3551C24.3609 16.3943 24.447 16.4518 24.5195 16.5242C24.5919 16.5967 24.6494 16.6828 24.6886 16.7775C24.7279 16.8721 24.748 16.9736 24.748 17.0761V25.4488H19.1851V17.0747C19.1854 16.8679 19.2678 16.6698 19.4142 16.5237C19.5605 16.3777 19.7588 16.2957 19.9655 16.2957Z" stroke="#0C54A0" stroke-width="1.28" stroke-linecap="round" stroke-linejoin="round"/>
<path d="M29.176 11.8457H33.178C33.385 11.8457 33.5835 11.9279 33.7299 12.0743C33.8763 12.2207 33.9585 12.4192 33.9585 12.6262V25.449H28.3955V12.6262C28.3955 12.4192 28.4777 12.2207 28.6241 12.0743C28.7705 11.9279 28.969 11.8457 29.176 11.8457Z" stroke="#0C54A0" stroke-width="1.28" stroke-linecap="round" stroke-linejoin="round"/>
<path d="M8.5 25.4475H35.7744" stroke="#0C54A0" stroke-width="1.28" stroke-linecap="round" stroke-linejoin="round"/>
<path d="M42.4716 26.3591C39.5927 25.6088 37.2397 22.8924 37.2397 19.778C37.2297 18.8921 37.3955 18.013 37.7276 17.1916C38.0596 16.3702 38.5514 15.6229 39.1743 14.9928C39.7972 14.3628 40.5389 13.8626 41.3565 13.5213C42.1741 13.1799 43.0513 13.0042 43.9372 13.0042C44.8232 13.0042 45.7004 13.1799 46.5179 13.5213C47.3355 13.8626 48.0772 14.3628 48.7002 14.9928C49.3231 15.6229 49.8148 16.3702 50.1469 17.1916C50.479 18.013 50.6448 18.8921 50.6348 19.778C50.6429 20.7899 50.4181 21.7901 49.9777 22.7012C49.5374 23.6123 48.8933 24.4099 48.0953 25.0322" fill="#EBECEC"/>
<path d="M42.4716 26.3591C39.5927 25.6088 37.2397 22.8924 37.2397 19.778C37.2297 18.8921 37.3955 18.013 37.7276 17.1916C38.0596 16.3702 38.5514 15.6229 39.1743 14.9928C39.7972 14.3628 40.5389 13.8626 41.3565 13.5213C42.1741 13.1799 43.0513 13.0042 43.9372 13.0042C44.8232 13.0042 45.7004 13.1799 46.5179 13.5213C47.3355 13.8626 48.0772 14.3628 48.7002 14.9928C49.3231 15.6229 49.8148 16.3702 50.1469 17.1916C50.479 18.013 50.6448 18.8921 50.6348 19.778C50.6429 20.7899 50.4181 21.7901 49.9777 22.7012C49.5374 23.6123 48.8933 24.4099 48.0953 25.0322" stroke="#0C54A0" stroke-width="1.28" stroke-linecap="round" stroke-linejoin="round"/>
<path d="M42.4625 19.9681C42.4625 19.5444 42.4865 19.1267 42.7839 18.7924C42.9263 18.6313 43.1005 18.5014 43.2956 18.4109C43.4907 18.3203 43.7024 18.2712 43.9174 18.2665C44.2772 18.2668 44.6244 18.3988 44.8935 18.6376C45.1626 18.8763 45.3351 19.2053 45.3783 19.5624C45.3783 20.2542 45.4239 20.9512 45.4462 21.6439L45.4926 23.0455C46.2378 22.6909 46.8394 22.0923 47.1977 21.3489C47.5559 20.6055 47.6494 19.762 47.4625 18.9582C47.2756 18.1544 46.8196 17.4386 46.1701 16.9296C45.5206 16.4205 44.7166 16.1487 43.8914 16.1592C43.0663 16.1698 42.2695 16.462 41.6332 16.9875C40.9969 17.513 40.5594 18.2402 40.3931 19.0485C40.2268 19.8568 40.3418 20.6977 40.7189 21.4317C41.0961 22.1657 41.7128 22.7487 42.4668 23.0842V21.6628L42.4625 19.9681Z" stroke="#0C54A0" stroke-width="1.28" stroke-linecap="round" stroke-linejoin="round"/>
<path d="M45.493 23.0456L45.4466 21.6439C45.4243 20.9513 45.3788 20.2543 45.3788 19.5625C45.3355 19.2054 45.1631 18.8764 44.8939 18.6377C44.6248 18.3989 44.2776 18.2669 43.9178 18.2666C43.7028 18.2713 43.4911 18.3204 43.296 18.411C43.1009 18.5015 42.9267 18.6314 42.7843 18.7925C42.487 19.1268 42.4629 19.5445 42.4629 19.9682V21.6629V23.0843" stroke="#0C54A0" stroke-width="1.28" stroke-linecap="round" stroke-linejoin="round"/>
<path d="M52.708 31.3702L52.5722 27.2255C52.5627 26.9436 52.4699 26.0017 51.6673 25.7448C51.3198 25.6368 50.9441 25.6676 50.6188 25.8307L50.5475 25.8367H50.5252C50.3705 25.3211 50.0147 24.9988 49.5016 24.9275C48.8829 24.8416 48.4627 25.0383 48.2126 25.2334C47.9393 24.6937 47.4177 24.4248 46.7276 24.5047C46.4977 24.5317 46.2758 24.6055 46.0756 24.7215C45.8753 24.8375 45.7009 24.9933 45.5631 25.1793L45.4463 21.6447C45.4239 20.952 45.3784 20.2551 45.3784 19.5633C45.3351 19.2061 45.1627 18.8771 44.8935 18.6384C44.6244 18.3997 44.2772 18.2677 43.9174 18.2673C43.7024 18.272 43.4907 18.3212 43.2956 18.4117C43.1006 18.5022 42.9263 18.6321 42.7839 18.7933C42.4866 19.1276 42.4625 19.5452 42.4625 19.9689V21.6636L42.4685 26.3601C42.4402 26.5062 42.5287 29.7692 42.5287 29.7692C42.2442 29.4968 41.9271 29.1857 41.6401 28.8875C40.9723 28.1888 39.7735 27.7445 38.9838 27.6844C38.5678 27.65 38.2541 27.7179 38.0488 27.8829C37.9815 27.9376 37.9181 27.9967 37.8588 28.0599C37.4661 28.4733 37.1808 29.129 37.4798 29.593C37.6088 29.7958 37.8236 29.9256 38.0531 30.0623C38.3547 30.2453 38.8609 30.4361 39.2519 30.9027C39.9067 31.6865 41.4218 33.4353 42.3456 34.366C42.5347 34.4751 42.942 34.855 43.1311 34.9487C43.7069 35.2924 44.1795 35.6147 44.3445 35.7934C44.4752 35.9318 45.2263 36.2867 45.2263 36.2867C45.8364 36.6451 46.9347 36.963 48.1911 36.9209C49.4475 36.8788 50.5862 36.9209 51.4026 36.1475H51.4481L51.4688 36.0908C51.8895 35.6898 52.2216 35.2051 52.4436 34.668C52.6656 34.1308 52.7727 33.5531 52.7578 32.9721C52.7509 32.6722 52.7157 31.5765 52.708 31.3702Z" fill="#EBECEC" stroke="#0C54A0" stroke-width="1.28" stroke-linecap="round" stroke-linejoin="round"/>
</svg>
