<svg width="44" height="38" viewBox="0 0 44 38" fill="none" xmlns="http://www.w3.org/2000/svg">
<path d="M11.8916 37H31.6124" stroke="#0C54A0" stroke-width="1.28" stroke-linecap="round" stroke-linejoin="round"/>
<path d="M25.5747 29.405H17.9297V36.9999H25.5747V29.405Z" stroke="#0C54A0" stroke-width="1.28" stroke-linecap="round" stroke-linejoin="round"/>
<path d="M39.4864 1H3.95393C2.32252 1 1 2.32252 1 3.95393V26.4512C1 28.0826 2.32252 29.4051 3.95393 29.4051H39.4864C41.1178 29.4051 42.4403 28.0826 42.4403 26.4512V3.95393C42.4403 2.32252 41.1178 1 39.4864 1Z" stroke="#0C54A0" stroke-width="1.28" stroke-linecap="round" stroke-linejoin="round"/>
<path d="M37.3311 8.03474C38.4454 8.03474 39.3487 7.13142 39.3487 6.01712C39.3487 4.90283 38.4454 3.99951 37.3311 3.99951C36.2168 3.99951 35.3135 4.90283 35.3135 6.01712C35.3135 7.13142 36.2168 8.03474 37.3311 8.03474Z" stroke="#0C54A0" stroke-width="1.28" stroke-linecap="round" stroke-linejoin="round"/>
<rect x="4.375" y="19.4688" width="34.6883" height="7.03141" rx="1.40628" stroke="#0C54A0" stroke-width="1.28"/>
<rect x="4.375" y="10.0935" width="34.6883" height="7.03141" rx="1.40628" stroke="#0C54A0" stroke-width="1.28"/>
</svg>
