<svg width="37" height="38" viewBox="0 0 37 38" fill="none" xmlns="http://www.w3.org/2000/svg">
<path d="M14.1494 26.45H3.63685C3.29063 26.4498 2.94778 26.5178 2.62787 26.6502C2.30796 26.7826 2.01727 26.9767 1.7724 27.2214C1.52753 27.4661 1.33328 27.7567 1.20075 28.0766C1.06822 28.3964 1.00001 28.7392 1.00001 29.0855C0.999301 29.4322 1.06698 29.7756 1.19918 30.0962C1.33138 30.4167 1.5255 30.708 1.77042 30.9535C2.01534 31.1989 2.30627 31.3936 2.62653 31.5264C2.9468 31.6593 3.29012 31.7277 3.63685 31.7277H19.6294C19.9756 31.7275 20.3185 31.7955 20.6384 31.9279C20.9583 32.0603 21.249 32.2544 21.4938 32.4991C21.7387 32.7438 21.933 33.0344 22.0655 33.3543C22.198 33.6741 22.2662 34.0169 22.2662 34.3632C22.2662 34.7094 22.198 35.0523 22.0655 35.3722C21.933 35.6921 21.7388 35.9828 21.4939 36.2277C21.2491 36.4725 20.9584 36.6668 20.6385 36.7993C20.3186 36.9318 19.9757 37 19.6294 37H10.7408" stroke="#0C54A0" stroke-width="1.28" stroke-linecap="round" stroke-linejoin="round"/>
<path d="M14.2202 14.142C14.2202 14.142 17.866 11.4168 24.6282 13.3917C25.9463 13.7678 27.3029 13.9926 28.6719 14.0616C30.8264 14.1836 33.6857 14.0616 35.9071 12.9388C36.0408 12.8677 36.1523 12.7612 36.2296 12.631C36.3068 12.5009 36.3468 12.352 36.3453 12.2006V2.33923C36.3443 2.20346 36.3099 2.07003 36.2451 1.95075C36.1802 1.83148 36.0869 1.73004 35.9735 1.65544C35.8601 1.58083 35.73 1.53536 35.5948 1.52305C35.4596 1.51075 35.3234 1.53198 35.1984 1.58488C33.0975 2.41292 30.5986 2.50135 28.6666 2.3888C27.2977 2.31911 25.9411 2.09437 24.6229 1.71887C17.8606 -0.257421 14.2148 2.46785 14.2148 2.46785" stroke="#0C54A0" stroke-width="1.28" stroke-linecap="round" stroke-linejoin="round"/>
<path d="M14.2207 26.0789V2.47192" stroke="#0C54A0" stroke-width="1.28" stroke-linecap="round" stroke-linejoin="round"/>
</svg>
