<svg width="304" height="251" viewBox="0 0 304 251" fill="none" xmlns="http://www.w3.org/2000/svg">
<g opacity="0.3">
<path d="M302.361 156.125L261.334 197.128V255.114C261.334 258.51 258.664 261.179 255.265 261.179H205.256L205.984 252.688L206.712 242.983C208.655 218.478 214.966 194.944 225.162 172.866C234.145 153.214 246.526 135.017 261.334 119.247C263.033 117.306 264.975 115.608 266.675 113.667C266.918 113.424 267.16 113.182 267.403 112.696L302.361 147.633C304.546 149.817 304.546 153.699 302.361 156.125Z" fill="#F5F5F5"/>
<path d="M190.689 267.485L156.216 302.18C153.789 304.606 149.905 304.606 147.72 302.18L106.693 261.177H48.6726C45.2739 261.177 42.6035 258.509 42.6035 255.112V205.132L51.343 205.86L60.568 206.588C106.693 210.227 150.39 229.637 184.134 260.935C186.076 262.876 188.018 264.574 189.96 266.515C190.203 267 190.446 267.243 190.689 267.485Z" fill="#F5F5F5"/>
<path d="M98.1976 42.5769L97.4693 51.5538L96.741 60.7733C93.0995 106.871 73.9213 150.3 42.6049 184.024C40.6628 185.965 38.7207 188.148 36.7786 190.089C36.5358 190.332 36.2931 190.575 36.2931 190.575L1.82072 156.123C-0.606907 153.697 -0.606907 149.815 1.82072 147.631L42.8476 106.628V48.6424C42.8476 45.2457 45.518 42.5769 48.9167 42.5769H98.1976Z" fill="#F5F5F5"/>
<path d="M261.334 48.6431V98.38C261.334 98.38 261.334 98.38 261.092 98.38L252.352 97.6522L242.642 96.9243C218.123 94.9834 194.575 88.6752 172.483 78.4852C153.062 69.5083 134.855 57.3774 119.075 42.5776C117.133 40.6367 115.191 38.9383 113.249 36.9974C113.006 36.7547 112.764 36.5121 112.764 36.5121L147.479 1.81757C149.906 -0.608623 153.791 -0.608623 155.975 1.81757L197.002 42.8202H255.023C258.421 42.5776 261.334 45.2464 261.334 48.6431Z" fill="#F5F5F5"/>
</g>
</svg>
