<svg width="442" height="508" viewBox="0 0 442 508" fill="none" xmlns="http://www.w3.org/2000/svg">
<g clip-path="url(#clip0_0_15)">
<rect width="442" height="508" fill="#0C54A0"/>
<g opacity="0.3">
<path d="M340.361 407.125L299.334 448.128V506.114C299.334 509.51 296.664 512.179 293.265 512.179H243.256L243.984 503.688L244.712 493.983C246.655 469.478 252.966 445.944 263.162 423.866C272.145 404.214 284.526 386.017 299.334 370.247C301.033 368.306 302.975 366.608 304.675 364.667C304.918 364.424 305.16 364.182 305.403 363.696L340.361 398.633C342.546 400.817 342.546 404.699 340.361 407.125Z" fill="#F5F5F5"/>
<path d="M228.689 518.485L194.216 553.18C191.789 555.606 187.905 555.606 185.72 553.18L144.693 512.177H86.6725C83.2738 512.177 80.6034 509.509 80.6034 506.112V456.132L89.3429 456.86L98.5679 457.588C144.693 461.227 188.39 480.637 222.134 511.935C224.076 513.876 226.018 515.574 227.96 517.515C228.203 518 228.446 518.243 228.689 518.485Z" fill="#F5F5F5"/>
<path d="M136.198 293.577L135.469 302.554L134.741 311.773C131.1 357.871 111.921 401.3 80.6049 435.024C78.6628 436.965 76.7207 439.148 74.7786 441.089C74.5358 441.332 74.2931 441.575 74.2931 441.575L39.8207 407.123C37.3931 404.697 37.3931 400.815 39.8207 398.631L80.8476 357.628V299.642C80.8476 296.246 83.518 293.577 86.9167 293.577H136.198Z" fill="#F5F5F5"/>
<path d="M299.334 299.643V349.38C299.334 349.38 299.334 349.38 299.092 349.38L290.352 348.652L280.642 347.924C256.123 345.983 232.575 339.675 210.483 329.485C191.062 320.508 172.855 308.377 157.075 293.578C155.133 291.637 153.191 289.938 151.249 287.997C151.006 287.755 150.764 287.512 150.764 287.512L185.479 252.818C187.906 250.391 191.79 250.391 193.975 252.818L235.002 293.82H293.022C296.421 293.578 299.334 296.246 299.334 299.643Z" fill="#F5F5F5"/>
</g>
</g>
<defs>
<clipPath id="clip0_0_15">
<rect width="442" height="508" fill="white"/>
</clipPath>
</defs>
</svg>
